<svg id="svg" version="1.1" xmlns="http://www.w3.org/2000/svg" xmlns:xlink="http://www.w3.org/1999/xlink" width="400" height="399.81247069854663" viewBox="0, 0, 400,399.81247069854663"><g id="svgg"><path id="path0" d="M200.094 73.136 C 200.094 73.505,199.969 73.511,193.061 73.511 C 186.154 73.511,186.029 73.518,186.029 73.887 C 186.029 74.246,185.904 74.262,182.935 74.262 C 179.966 74.262,179.841 74.277,179.841 74.637 C 179.841 74.992,179.716 75.012,177.496 75.012 L 175.152 75.012 175.152 75.481 L 175.152 75.949 173.183 75.949 C 171.339 75.949,171.214 75.973,171.214 76.324 C 171.214 76.676,171.089 76.699,169.245 76.699 C 167.401 76.699,167.276 76.723,167.276 77.075 C 167.276 77.408,167.151 77.450,166.151 77.450 L 165.026 77.450 165.026 78.575 C 165.026 79.575,165.067 79.700,165.401 79.700 C 165.746 79.700,165.776 79.825,165.776 81.294 C 165.776 82.763,165.805 82.888,166.151 82.888 C 166.488 82.888,166.526 83.013,166.526 84.107 C 166.526 85.201,166.564 85.326,166.901 85.326 C 167.234 85.326,167.276 85.451,167.276 86.451 C 167.276 87.451,167.318 87.576,167.651 87.576 C 167.964 87.576,168.026 87.701,168.026 88.326 C 168.026 88.951,168.089 89.076,168.401 89.076 C 168.721 89.076,168.776 89.201,168.776 89.920 C 168.776 90.695,168.815 90.764,169.245 90.764 C 169.667 90.764,169.714 90.839,169.714 91.514 C 169.714 92.139,169.777 92.264,170.089 92.264 C 170.339 92.264,170.464 92.389,170.464 92.639 C 170.464 92.890,170.589 93.015,170.839 93.015 C 171.159 93.015,171.214 93.140,171.214 93.858 C 171.214 94.577,171.270 94.702,171.589 94.702 C 171.839 94.702,171.964 94.827,171.964 95.077 C 171.964 95.327,172.089 95.452,172.339 95.452 C 172.589 95.452,172.714 95.577,172.714 95.827 C 172.714 96.078,172.840 96.203,173.090 96.203 C 173.340 96.203,173.465 96.328,173.465 96.578 C 173.465 96.853,173.590 96.953,173.933 96.953 C 174.355 96.953,174.402 97.028,174.402 97.703 C 174.402 98.328,174.465 98.453,174.777 98.453 C 175.052 98.453,175.152 98.578,175.152 98.922 C 175.152 99.266,175.252 99.391,175.527 99.391 C 175.777 99.391,175.902 99.516,175.902 99.766 C 175.902 100.078,176.028 100.141,176.653 100.141 C 177.278 100.141,177.403 100.203,177.403 100.516 C 177.403 100.766,177.528 100.891,177.778 100.891 C 178.028 100.891,178.153 101.016,178.153 101.266 C 178.153 101.541,178.278 101.641,178.622 101.641 C 178.965 101.641,179.090 101.741,179.090 102.016 C 179.090 102.266,179.216 102.391,179.466 102.391 C 179.716 102.391,179.841 102.516,179.841 102.766 C 179.841 103.079,179.966 103.141,180.591 103.141 C 181.266 103.141,181.341 103.188,181.341 103.610 C 181.341 103.954,181.441 104.079,181.716 104.079 C 181.966 104.079,182.091 104.204,182.091 104.454 C 182.091 104.773,182.216 104.829,182.935 104.829 C 183.654 104.829,183.779 104.884,183.779 105.204 C 183.779 105.516,183.904 105.579,184.529 105.579 C 185.154 105.579,185.279 105.642,185.279 105.954 C 185.279 106.267,185.404 106.329,186.029 106.329 C 186.654 106.329,186.779 106.392,186.779 106.704 C 186.779 107.041,186.904 107.079,187.998 107.079 C 189.092 107.079,189.217 107.118,189.217 107.454 C 189.217 107.788,189.342 107.829,190.342 107.829 C 191.417 107.829,191.467 107.850,191.467 108.298 C 191.467 108.761,191.486 108.767,193.061 108.767 C 194.530 108.767,194.655 108.796,194.655 109.142 C 194.655 109.510,194.780 109.517,201.688 109.517 C 208.595 109.517,208.720 109.510,208.720 109.142 C 208.720 108.796,208.845 108.767,210.314 108.767 C 211.889 108.767,211.908 108.761,211.908 108.298 C 211.908 107.850,211.958 107.829,213.033 107.829 C 214.033 107.829,214.158 107.788,214.158 107.454 C 214.158 107.142,214.283 107.079,214.909 107.079 C 215.534 107.079,215.659 107.017,215.659 106.704 C 215.659 106.385,215.784 106.329,216.503 106.329 C 217.221 106.329,217.346 106.274,217.346 105.954 C 217.346 105.642,217.471 105.579,218.097 105.579 C 218.722 105.579,218.847 105.516,218.847 105.204 C 218.847 104.891,218.972 104.829,219.597 104.829 C 220.222 104.829,220.347 104.766,220.347 104.454 C 220.347 104.134,220.472 104.079,221.191 104.079 C 221.966 104.079,222.035 104.041,222.035 103.610 C 222.035 103.266,222.135 103.141,222.410 103.141 C 222.660 103.141,222.785 103.016,222.785 102.766 C 222.785 102.454,222.910 102.391,223.535 102.391 C 224.160 102.391,224.285 102.328,224.285 102.016 C 224.285 101.766,224.410 101.641,224.660 101.641 C 224.910 101.641,225.035 101.516,225.035 101.266 C 225.035 100.991,225.160 100.891,225.504 100.891 C 225.848 100.891,225.973 100.791,225.973 100.516 C 225.973 100.266,226.098 100.141,226.348 100.141 C 226.598 100.141,226.723 100.016,226.723 99.766 C 226.723 99.516,226.848 99.391,227.098 99.391 C 227.373 99.391,227.473 99.266,227.473 98.922 C 227.473 98.578,227.573 98.453,227.848 98.453 C 228.098 98.453,228.223 98.328,228.223 98.078 C 228.223 97.828,228.348 97.703,228.598 97.703 C 228.848 97.703,228.973 97.578,228.973 97.328 C 228.973 97.078,229.098 96.953,229.348 96.953 C 229.598 96.953,229.723 96.828,229.723 96.578 C 229.723 96.303,229.848 96.203,230.192 96.203 C 230.614 96.203,230.661 96.128,230.661 95.452 C 230.661 94.827,230.724 94.702,231.036 94.702 C 231.311 94.702,231.411 94.577,231.411 94.233 C 231.411 93.890,231.511 93.765,231.786 93.765 C 232.099 93.765,232.161 93.640,232.161 93.015 C 232.161 92.389,232.224 92.264,232.536 92.264 C 232.786 92.264,232.911 92.139,232.911 91.889 C 232.911 91.639,233.036 91.514,233.286 91.514 C 233.599 91.514,233.662 91.389,233.662 90.764 C 233.662 90.139,233.724 90.014,234.037 90.014 C 234.356 90.014,234.412 89.889,234.412 89.170 C 234.412 88.395,234.450 88.326,234.880 88.326 C 235.328 88.326,235.349 88.276,235.349 87.201 C 235.349 86.201,235.391 86.076,235.724 86.076 C 236.044 86.076,236.099 85.951,236.099 85.232 C 236.099 84.513,236.155 84.388,236.474 84.388 C 236.818 84.388,236.850 84.263,236.850 82.888 C 236.850 81.513,236.881 81.388,237.225 81.388 C 237.576 81.388,237.600 81.263,237.600 79.419 L 237.600 77.450 236.474 77.450 C 235.474 77.450,235.349 77.408,235.349 77.075 C 235.349 76.729,235.224 76.699,233.755 76.699 C 232.286 76.699,232.161 76.670,232.161 76.324 C 232.161 75.969,232.036 75.949,229.817 75.949 L 227.473 75.949 227.473 75.481 L 227.473 75.012 225.129 75.012 C 222.910 75.012,222.785 74.992,222.785 74.637 C 222.785 74.277,222.660 74.262,219.691 74.262 C 216.721 74.262,216.596 74.246,216.596 73.887 C 216.596 73.518,216.471 73.511,209.564 73.511 C 202.657 73.511,202.532 73.505,202.532 73.136 C 202.532 72.800,202.407 72.761,201.313 72.761 C 200.219 72.761,200.094 72.800,200.094 73.136 M262.541 87.951 C 262.541 88.201,262.416 88.326,262.166 88.326 C 261.846 88.326,261.791 88.451,261.791 89.170 C 261.791 89.889,261.735 90.014,261.416 90.014 C 261.166 90.014,261.041 90.139,261.041 90.389 C 261.041 90.639,260.916 90.764,260.666 90.764 C 260.353 90.764,260.291 90.889,260.291 91.514 C 260.291 92.139,260.228 92.264,259.916 92.264 C 259.603 92.264,259.541 92.389,259.541 93.015 C 259.541 93.640,259.478 93.765,259.165 93.765 C 258.846 93.765,258.790 93.890,258.790 94.609 C 258.790 95.384,258.752 95.452,258.322 95.452 C 257.900 95.452,257.853 95.527,257.853 96.203 C 257.853 96.828,257.790 96.953,257.478 96.953 C 257.141 96.953,257.103 97.078,257.103 98.172 C 257.103 99.266,257.064 99.391,256.728 99.391 C 256.384 99.391,256.353 99.516,256.353 100.891 C 256.353 102.266,256.321 102.391,255.977 102.391 C 255.620 102.391,255.602 102.516,255.602 105.110 C 255.602 107.704,255.585 107.829,255.227 107.829 C 254.876 107.829,254.852 107.954,254.852 109.798 C 254.852 111.642,254.876 111.767,255.227 111.767 C 255.588 111.767,255.602 111.892,255.602 114.955 C 255.602 118.018,255.617 118.143,255.977 118.143 C 256.321 118.143,256.353 118.268,256.353 119.644 C 256.353 121.019,256.384 121.144,256.728 121.144 C 257.047 121.144,257.103 121.269,257.103 121.988 C 257.103 122.707,257.158 122.832,257.478 122.832 C 257.811 122.832,257.853 122.957,257.853 123.957 C 257.853 125.032,257.874 125.082,258.322 125.082 C 258.744 125.082,258.790 125.157,258.790 125.832 C 258.790 126.457,258.853 126.582,259.165 126.582 C 259.485 126.582,259.541 126.707,259.541 127.426 C 259.541 128.145,259.596 128.270,259.916 128.270 C 260.228 128.270,260.291 128.395,260.291 129.020 C 260.291 129.645,260.353 129.770,260.666 129.770 C 260.916 129.770,261.041 129.895,261.041 130.145 C 261.041 130.395,261.166 130.520,261.416 130.520 C 261.735 130.520,261.791 130.645,261.791 131.364 C 261.791 132.083,261.846 132.208,262.166 132.208 C 262.416 132.208,262.541 132.333,262.541 132.583 C 262.541 132.858,262.666 132.958,263.010 132.958 C 263.354 132.958,263.479 133.058,263.479 133.333 C 263.479 133.583,263.604 133.708,263.854 133.708 C 264.104 133.708,264.229 133.833,264.229 134.083 C 264.229 134.333,264.354 134.459,264.604 134.459 C 264.854 134.459,264.979 134.584,264.979 134.834 C 264.979 135.084,265.104 135.209,265.354 135.209 C 265.604 135.209,265.729 135.334,265.729 135.584 C 265.729 135.834,265.854 135.959,266.104 135.959 C 266.424 135.959,266.479 136.084,266.479 136.803 L 266.479 137.647 267.323 137.647 C 268.042 137.647,268.167 137.702,268.167 138.022 C 268.167 138.272,268.292 138.397,268.542 138.397 C 268.792 138.397,268.917 138.522,268.917 138.772 C 268.917 139.022,269.042 139.147,269.292 139.147 C 269.542 139.147,269.667 139.272,269.667 139.522 C 269.667 139.834,269.792 139.897,270.417 139.897 C 271.042 139.897,271.167 139.959,271.167 140.272 C 271.167 140.522,271.292 140.647,271.542 140.647 C 271.817 140.647,271.917 140.772,271.917 141.116 C 271.917 141.546,271.986 141.585,272.761 141.585 C 273.480 141.585,273.605 141.640,273.605 141.960 C 273.605 142.272,273.730 142.335,274.355 142.335 C 274.980 142.335,275.105 142.397,275.105 142.710 C 275.105 143.022,275.231 143.085,275.856 143.085 C 276.481 143.085,276.606 143.147,276.606 143.460 C 276.606 143.779,276.731 143.835,277.450 143.835 C 278.168 143.835,278.293 143.891,278.293 144.210 C 278.293 144.543,278.419 144.585,279.419 144.585 C 280.419 144.585,280.544 144.627,280.544 144.960 C 280.544 145.297,280.669 145.335,281.763 145.335 C 282.938 145.335,282.982 145.352,282.982 145.804 L 282.982 146.273 285.326 146.273 C 287.545 146.273,287.670 146.293,287.670 146.648 C 287.670 147.012,287.795 147.023,291.983 147.023 C 296.171 147.023,296.296 147.012,296.296 146.648 C 296.296 146.293,296.421 146.273,298.640 146.273 L 300.985 146.273 300.985 145.804 C 300.985 145.356,301.035 145.335,302.110 145.335 C 303.110 145.335,303.235 145.294,303.235 144.960 C 303.235 144.624,303.360 144.585,304.454 144.585 C 305.548 144.585,305.673 144.547,305.673 144.210 C 305.673 143.897,305.798 143.835,306.423 143.835 C 307.048 143.835,307.173 143.772,307.173 143.460 C 307.173 143.147,307.298 143.085,307.923 143.085 C 308.548 143.085,308.673 143.022,308.673 142.710 C 308.673 142.390,308.798 142.335,309.517 142.335 C 310.236 142.335,310.361 142.279,310.361 141.960 C 310.361 141.647,310.486 141.585,311.111 141.585 C 311.786 141.585,311.861 141.538,311.861 141.116 C 311.861 140.772,311.961 140.647,312.236 140.647 C 312.486 140.647,312.611 140.522,312.611 140.272 C 312.611 139.959,312.736 139.897,313.361 139.897 L 314.112 139.897 314.112 139.147 C 314.112 138.522,314.049 138.397,313.737 138.397 C 313.424 138.397,313.361 138.272,313.361 137.647 C 313.361 137.021,313.299 136.896,312.986 136.896 C 312.711 136.896,312.611 136.771,312.611 136.428 C 312.611 136.084,312.511 135.959,312.236 135.959 C 311.924 135.959,311.861 135.834,311.861 135.209 C 311.861 134.584,311.799 134.459,311.486 134.459 C 311.236 134.459,311.111 134.333,311.111 134.083 C 311.111 133.833,310.986 133.708,310.736 133.708 C 310.424 133.708,310.361 133.583,310.361 132.958 C 310.361 132.283,310.314 132.208,309.892 132.208 C 309.517 132.208,309.423 132.114,309.423 131.739 C 309.423 131.396,309.323 131.271,309.048 131.271 C 308.736 131.271,308.673 131.145,308.673 130.520 C 308.673 129.895,308.611 129.770,308.298 129.770 C 308.048 129.770,307.923 129.645,307.923 129.395 C 307.923 129.145,307.798 129.020,307.548 129.020 C 307.236 129.020,307.173 128.895,307.173 128.270 C 307.173 127.645,307.110 127.520,306.798 127.520 C 306.523 127.520,306.423 127.395,306.423 127.051 C 306.423 126.707,306.323 126.582,306.048 126.582 C 305.798 126.582,305.673 126.457,305.673 126.207 C 305.673 125.932,305.548 125.832,305.204 125.832 C 304.782 125.832,304.735 125.757,304.735 125.082 C 304.735 124.457,304.673 124.332,304.360 124.332 C 304.110 124.332,303.985 124.207,303.985 123.957 C 303.985 123.707,303.860 123.582,303.610 123.582 C 303.360 123.582,303.235 123.457,303.235 123.207 C 303.235 122.957,303.110 122.832,302.860 122.832 C 302.585 122.832,302.485 122.707,302.485 122.363 C 302.485 122.019,302.385 121.894,302.110 121.894 C 301.797 121.894,301.735 121.769,301.735 121.144 C 301.735 120.519,301.672 120.394,301.360 120.394 C 301.110 120.394,300.985 120.269,300.985 120.019 C 300.985 119.744,300.860 119.644,300.516 119.644 C 300.172 119.644,300.047 119.544,300.047 119.269 C 300.047 119.019,299.922 118.894,299.672 118.894 C 299.422 118.894,299.297 118.769,299.297 118.519 C 299.297 118.268,299.172 118.143,298.922 118.143 C 298.647 118.143,298.547 118.018,298.547 117.675 C 298.547 117.331,298.447 117.206,298.172 117.206 C 297.922 117.206,297.797 117.081,297.797 116.831 C 297.797 116.581,297.672 116.456,297.421 116.456 C 297.171 116.456,297.046 116.331,297.046 116.081 C 297.046 115.831,296.921 115.706,296.671 115.706 C 296.359 115.706,296.296 115.581,296.296 114.955 C 296.296 114.280,296.249 114.205,295.827 114.205 C 295.484 114.205,295.359 114.105,295.359 113.830 C 295.359 113.580,295.234 113.455,294.984 113.455 C 294.709 113.455,294.609 113.330,294.609 112.986 C 294.609 112.643,294.509 112.518,294.233 112.518 C 293.983 112.518,293.858 112.393,293.858 112.143 C 293.858 111.892,293.733 111.767,293.483 111.767 C 293.233 111.767,293.108 111.642,293.108 111.392 C 293.108 111.142,292.983 111.017,292.733 111.017 C 292.483 111.017,292.358 110.892,292.358 110.642 C 292.358 110.392,292.233 110.267,291.983 110.267 C 291.733 110.267,291.608 110.142,291.608 109.892 C 291.608 109.617,291.483 109.517,291.139 109.517 C 290.795 109.517,290.670 109.417,290.670 109.142 C 290.670 108.892,290.545 108.767,290.295 108.767 C 290.020 108.767,289.920 108.642,289.920 108.298 C 289.920 107.954,289.820 107.829,289.545 107.829 C 289.295 107.829,289.170 107.704,289.170 107.454 C 289.170 107.204,289.045 107.079,288.795 107.079 C 288.545 107.079,288.420 106.954,288.420 106.704 C 288.420 106.454,288.295 106.329,288.045 106.329 C 287.795 106.329,287.670 106.204,287.670 105.954 C 287.670 105.704,287.545 105.579,287.295 105.579 C 287.045 105.579,286.920 105.454,286.920 105.204 C 286.920 104.929,286.795 104.829,286.451 104.829 C 286.107 104.829,285.982 104.729,285.982 104.454 C 285.982 104.141,285.857 104.079,285.232 104.079 C 284.557 104.079,284.482 104.032,284.482 103.610 C 284.482 103.266,284.382 103.141,284.107 103.141 C 283.857 103.141,283.732 103.016,283.732 102.766 C 283.732 102.516,283.607 102.391,283.357 102.391 C 283.107 102.391,282.982 102.266,282.982 102.016 C 282.982 101.766,282.857 101.641,282.607 101.641 C 282.357 101.641,282.232 101.516,282.232 101.266 C 282.232 100.991,282.107 100.891,281.763 100.891 C 281.419 100.891,281.294 100.791,281.294 100.516 C 281.294 100.203,281.169 100.141,280.544 100.141 C 279.919 100.141,279.794 100.078,279.794 99.766 C 279.794 99.516,279.669 99.391,279.419 99.391 C 279.144 99.391,279.044 99.266,279.044 98.922 C 279.044 98.578,278.944 98.453,278.669 98.453 C 278.419 98.453,278.293 98.328,278.293 98.078 C 278.293 97.758,278.168 97.703,277.450 97.703 C 276.731 97.703,276.606 97.647,276.606 97.328 C 276.606 97.078,276.481 96.953,276.231 96.953 C 275.981 96.953,275.856 96.828,275.856 96.578 C 275.856 96.328,275.731 96.203,275.481 96.203 C 275.231 96.203,275.105 96.078,275.105 95.827 C 275.105 95.515,274.980 95.452,274.355 95.452 C 273.730 95.452,273.605 95.390,273.605 95.077 C 273.605 94.827,273.480 94.702,273.230 94.702 C 272.955 94.702,272.855 94.577,272.855 94.233 C 272.855 93.803,272.786 93.765,272.011 93.765 C 271.292 93.765,271.167 93.709,271.167 93.390 C 271.167 93.140,271.042 93.015,270.792 93.015 C 270.542 93.015,270.417 92.890,270.417 92.639 C 270.417 92.327,270.292 92.264,269.667 92.264 C 269.042 92.264,268.917 92.202,268.917 91.889 C 268.917 91.639,268.792 91.514,268.542 91.514 C 268.292 91.514,268.167 91.389,268.167 91.139 C 268.167 90.820,268.042 90.764,267.323 90.764 C 266.604 90.764,266.479 90.709,266.479 90.389 C 266.479 90.139,266.354 90.014,266.104 90.014 C 265.829 90.014,265.729 89.889,265.729 89.545 C 265.729 89.123,265.654 89.076,264.979 89.076 C 264.354 89.076,264.229 89.014,264.229 88.701 C 264.229 88.451,264.104 88.326,263.854 88.326 C 263.604 88.326,263.479 88.201,263.479 87.951 C 263.479 87.676,263.354 87.576,263.010 87.576 C 262.666 87.576,262.541 87.676,262.541 87.951 M139.147 88.701 C 139.147 89.014,139.022 89.076,138.397 89.076 C 137.722 89.076,137.647 89.123,137.647 89.545 C 137.647 89.976,137.578 90.014,136.803 90.014 C 136.084 90.014,135.959 90.070,135.959 90.389 C 135.959 90.639,135.834 90.764,135.584 90.764 C 135.334 90.764,135.209 90.889,135.209 91.139 C 135.209 91.452,135.084 91.514,134.459 91.514 C 133.833 91.514,133.708 91.577,133.708 91.889 C 133.708 92.139,133.583 92.264,133.333 92.264 C 133.083 92.264,132.958 92.389,132.958 92.639 C 132.958 92.959,132.833 93.015,132.114 93.015 C 131.396 93.015,131.271 93.070,131.271 93.390 C 131.271 93.640,131.145 93.765,130.895 93.765 C 130.620 93.765,130.520 93.890,130.520 94.233 C 130.520 94.655,130.445 94.702,129.770 94.702 C 129.145 94.702,129.020 94.765,129.020 95.077 C 129.020 95.327,128.895 95.452,128.645 95.452 C 128.395 95.452,128.270 95.577,128.270 95.827 C 128.270 96.078,128.145 96.203,127.895 96.203 C 127.645 96.203,127.520 96.328,127.520 96.578 C 127.520 96.897,127.395 96.953,126.676 96.953 C 125.957 96.953,125.832 97.008,125.832 97.328 C 125.832 97.578,125.707 97.703,125.457 97.703 C 125.207 97.703,125.082 97.828,125.082 98.078 C 125.082 98.328,124.957 98.453,124.707 98.453 C 124.432 98.453,124.332 98.578,124.332 98.922 C 124.332 99.344,124.257 99.391,123.582 99.391 C 122.957 99.391,122.832 99.453,122.832 99.766 C 122.832 100.041,122.707 100.141,122.363 100.141 C 122.019 100.141,121.894 100.241,121.894 100.516 C 121.894 100.766,121.769 100.891,121.519 100.891 C 121.269 100.891,121.144 101.016,121.144 101.266 C 121.144 101.516,121.019 101.641,120.769 101.641 C 120.519 101.641,120.394 101.766,120.394 102.016 C 120.394 102.266,120.269 102.391,120.019 102.391 C 119.769 102.391,119.644 102.516,119.644 102.766 C 119.644 103.079,119.519 103.141,118.894 103.141 C 118.218 103.141,118.143 103.188,118.143 103.610 C 118.143 103.985,118.050 104.079,117.675 104.079 C 117.331 104.079,117.206 104.179,117.206 104.454 C 117.206 104.704,117.081 104.829,116.831 104.829 C 116.581 104.829,116.456 104.954,116.456 105.204 C 116.456 105.454,116.331 105.579,116.081 105.579 C 115.831 105.579,115.706 105.704,115.706 105.954 C 115.706 106.204,115.581 106.329,115.331 106.329 C 115.080 106.329,114.955 106.454,114.955 106.704 C 114.955 106.954,114.830 107.079,114.580 107.079 C 114.330 107.079,114.205 107.204,114.205 107.454 C 114.205 107.704,114.080 107.829,113.830 107.829 C 113.555 107.829,113.455 107.954,113.455 108.298 C 113.455 108.673,113.361 108.767,112.986 108.767 C 112.643 108.767,112.518 108.867,112.518 109.142 C 112.518 109.392,112.393 109.517,112.143 109.517 C 111.892 109.517,111.767 109.642,111.767 109.892 C 111.767 110.142,111.642 110.267,111.392 110.267 C 111.142 110.267,111.017 110.392,111.017 110.642 C 111.017 110.892,110.892 111.017,110.642 111.017 C 110.392 111.017,110.267 111.142,110.267 111.392 C 110.267 111.642,110.142 111.767,109.892 111.767 C 109.642 111.767,109.517 111.892,109.517 112.143 C 109.517 112.393,109.392 112.518,109.142 112.518 C 108.867 112.518,108.767 112.643,108.767 112.986 C 108.767 113.361,108.673 113.455,108.298 113.455 C 107.954 113.455,107.829 113.555,107.829 113.830 C 107.829 114.080,107.704 114.205,107.454 114.205 C 107.204 114.205,107.079 114.330,107.079 114.580 C 107.079 114.830,106.954 114.955,106.704 114.955 C 106.454 114.955,106.329 115.080,106.329 115.331 C 106.329 115.581,106.204 115.706,105.954 115.706 C 105.704 115.706,105.579 115.831,105.579 116.081 C 105.579 116.331,105.454 116.456,105.204 116.456 C 104.884 116.456,104.829 116.581,104.829 117.300 C 104.829 118.018,104.773 118.143,104.454 118.143 C 104.204 118.143,104.079 118.268,104.079 118.519 C 104.079 118.794,103.954 118.894,103.610 118.894 C 103.266 118.894,103.141 118.994,103.141 119.269 C 103.141 119.519,103.016 119.644,102.766 119.644 C 102.516 119.644,102.391 119.769,102.391 120.019 C 102.391 120.269,102.266 120.394,102.016 120.394 C 101.766 120.394,101.641 120.519,101.641 120.769 C 101.641 121.019,101.516 121.144,101.266 121.144 C 101.016 121.144,100.891 121.269,100.891 121.519 C 100.891 121.769,100.766 121.894,100.516 121.894 C 100.196 121.894,100.141 122.019,100.141 122.738 C 100.141 123.457,100.085 123.582,99.766 123.582 C 99.516 123.582,99.391 123.707,99.391 123.957 C 99.391 124.232,99.266 124.332,98.922 124.332 C 98.578 124.332,98.453 124.432,98.453 124.707 C 98.453 124.957,98.328 125.082,98.078 125.082 C 97.765 125.082,97.703 125.207,97.703 125.832 C 97.703 126.457,97.640 126.582,97.328 126.582 C 97.053 126.582,96.953 126.707,96.953 127.051 C 96.953 127.395,96.853 127.520,96.578 127.520 C 96.328 127.520,96.203 127.645,96.203 127.895 C 96.203 128.145,96.078 128.270,95.827 128.270 C 95.515 128.270,95.452 128.395,95.452 129.020 C 95.452 129.645,95.390 129.770,95.077 129.770 C 94.827 129.770,94.702 129.895,94.702 130.145 C 94.702 130.420,94.577 130.520,94.233 130.520 C 93.803 130.520,93.765 130.589,93.765 131.364 C 93.765 132.083,93.709 132.208,93.390 132.208 C 93.140 132.208,93.015 132.333,93.015 132.583 C 93.015 132.833,92.890 132.958,92.639 132.958 C 92.327 132.958,92.264 133.083,92.264 133.708 C 92.264 134.333,92.202 134.459,91.889 134.459 C 91.639 134.459,91.514 134.584,91.514 134.834 C 91.514 135.084,91.389 135.209,91.139 135.209 C 90.820 135.209,90.764 135.334,90.764 136.053 C 90.764 136.771,90.709 136.896,90.389 136.896 C 90.139 136.896,90.014 137.021,90.014 137.271 C 90.014 137.546,89.889 137.647,89.545 137.647 C 89.097 137.647,89.076 137.697,89.076 138.772 C 89.076 139.847,89.097 139.897,89.545 139.897 C 89.889 139.897,90.014 139.997,90.014 140.272 C 90.014 140.522,90.139 140.647,90.389 140.647 C 90.664 140.647,90.764 140.772,90.764 141.116 C 90.764 141.538,90.839 141.585,91.514 141.585 C 92.139 141.585,92.264 141.647,92.264 141.960 C 92.264 142.272,92.389 142.335,93.015 142.335 C 93.640 142.335,93.765 142.397,93.765 142.710 C 93.765 143.029,93.890 143.085,94.609 143.085 C 95.327 143.085,95.452 143.140,95.452 143.460 C 95.452 143.772,95.577 143.835,96.203 143.835 C 96.828 143.835,96.953 143.897,96.953 144.210 C 96.953 144.547,97.078 144.585,98.172 144.585 C 99.266 144.585,99.391 144.624,99.391 144.960 C 99.391 145.294,99.516 145.335,100.516 145.335 C 101.591 145.335,101.641 145.356,101.641 145.804 L 101.641 146.273 103.610 146.273 C 105.454 146.273,105.579 146.297,105.579 146.648 C 105.579 147.014,105.704 147.023,111.017 147.023 C 116.331 147.023,116.456 147.014,116.456 146.648 C 116.456 146.297,116.581 146.273,118.425 146.273 L 120.394 146.273 120.394 145.804 C 120.394 145.352,120.438 145.335,121.613 145.335 C 122.707 145.335,122.832 145.297,122.832 144.960 C 122.832 144.627,122.957 144.585,123.957 144.585 C 124.957 144.585,125.082 144.543,125.082 144.210 C 125.082 143.897,125.207 143.835,125.832 143.835 C 126.457 143.835,126.582 143.772,126.582 143.460 C 126.582 143.140,126.707 143.085,127.426 143.085 C 128.145 143.085,128.270 143.029,128.270 142.710 C 128.270 142.397,128.395 142.335,129.020 142.335 C 129.645 142.335,129.770 142.272,129.770 141.960 C 129.770 141.647,129.895 141.585,130.520 141.585 C 131.195 141.585,131.271 141.538,131.271 141.116 C 131.271 140.741,131.364 140.647,131.739 140.647 C 132.083 140.647,132.208 140.547,132.208 140.272 C 132.208 139.959,132.333 139.897,132.958 139.897 C 133.583 139.897,133.708 139.834,133.708 139.522 C 133.708 139.272,133.833 139.147,134.083 139.147 C 134.333 139.147,134.459 139.022,134.459 138.772 C 134.459 138.522,134.584 138.397,134.834 138.397 C 135.084 138.397,135.209 138.272,135.209 138.022 C 135.209 137.772,135.334 137.647,135.584 137.647 C 135.834 137.647,135.959 137.521,135.959 137.271 C 135.959 136.996,136.084 136.896,136.428 136.896 C 136.803 136.896,136.896 136.803,136.896 136.428 C 136.896 136.084,136.996 135.959,137.271 135.959 C 137.521 135.959,137.647 135.834,137.647 135.584 C 137.647 135.334,137.772 135.209,138.022 135.209 C 138.272 135.209,138.397 135.084,138.397 134.834 C 138.397 134.584,138.522 134.459,138.772 134.459 C 139.022 134.459,139.147 134.333,139.147 134.083 C 139.147 133.833,139.272 133.708,139.522 133.708 C 139.834 133.708,139.897 133.583,139.897 132.958 C 139.897 132.333,139.959 132.208,140.272 132.208 C 140.547 132.208,140.647 132.083,140.647 131.739 C 140.647 131.364,140.741 131.271,141.116 131.271 C 141.460 131.271,141.585 131.170,141.585 130.895 C 141.585 130.645,141.710 130.520,141.960 130.520 C 142.272 130.520,142.335 130.395,142.335 129.770 C 142.335 129.145,142.397 129.020,142.710 129.020 C 143.022 129.020,143.085 128.895,143.085 128.270 C 143.085 127.645,143.147 127.520,143.460 127.520 C 143.779 127.520,143.835 127.395,143.835 126.676 C 143.835 125.957,143.891 125.832,144.210 125.832 C 144.523 125.832,144.585 125.707,144.585 125.082 C 144.585 124.457,144.648 124.332,144.960 124.332 C 145.297 124.332,145.335 124.207,145.335 123.113 C 145.335 121.938,145.352 121.894,145.804 121.894 C 146.252 121.894,146.273 121.844,146.273 120.769 C 146.273 119.769,146.315 119.644,146.648 119.644 C 146.999 119.644,147.023 119.519,147.023 117.675 C 147.023 115.831,147.047 115.706,147.398 115.706 C 147.765 115.706,147.773 115.581,147.773 109.892 C 147.773 104.204,147.765 104.079,147.398 104.079 C 147.052 104.079,147.023 103.954,147.023 102.485 C 147.023 101.016,146.994 100.891,146.648 100.891 C 146.311 100.891,146.273 100.766,146.273 99.672 C 146.273 98.497,146.256 98.453,145.804 98.453 C 145.356 98.453,145.335 98.403,145.335 97.328 C 145.335 96.328,145.294 96.203,144.960 96.203 C 144.648 96.203,144.585 96.078,144.585 95.452 C 144.585 94.827,144.523 94.702,144.210 94.702 C 143.891 94.702,143.835 94.577,143.835 93.858 C 143.835 93.140,143.779 93.015,143.460 93.015 C 143.147 93.015,143.085 92.890,143.085 92.264 C 143.085 91.639,143.022 91.514,142.710 91.514 C 142.460 91.514,142.335 91.389,142.335 91.139 C 142.335 90.889,142.210 90.764,141.960 90.764 C 141.640 90.764,141.585 90.639,141.585 89.920 C 141.585 89.145,141.546 89.076,141.116 89.076 C 140.772 89.076,140.647 88.976,140.647 88.701 C 140.647 88.389,140.522 88.326,139.897 88.326 C 139.272 88.326,139.147 88.389,139.147 88.701 M197.843 120.769 C 197.843 121.088,197.718 121.144,197.000 121.144 C 196.281 121.144,196.156 121.199,196.156 121.519 C 196.156 121.832,196.031 121.894,195.406 121.894 C 194.730 121.894,194.655 121.941,194.655 122.363 C 194.655 122.707,194.555 122.832,194.280 122.832 C 194.030 122.832,193.905 122.957,193.905 123.207 C 193.905 123.457,193.780 123.582,193.530 123.582 C 193.280 123.582,193.155 123.707,193.155 123.957 C 193.155 124.232,193.030 124.332,192.686 124.332 C 192.343 124.332,192.218 124.432,192.218 124.707 C 192.218 124.957,192.093 125.082,191.842 125.082 C 191.530 125.082,191.467 125.207,191.467 125.832 C 191.467 126.457,191.405 126.582,191.092 126.582 C 190.756 126.582,190.717 126.707,190.717 127.801 C 190.717 128.895,190.679 129.020,190.342 129.020 C 189.984 129.020,189.967 129.145,189.967 131.739 C 189.967 134.333,189.984 134.459,190.342 134.459 C 190.655 134.459,190.717 134.584,190.717 135.209 C 190.717 135.834,190.780 135.959,191.092 135.959 C 191.412 135.959,191.467 136.084,191.467 136.803 C 191.467 137.521,191.523 137.647,191.842 137.647 C 192.093 137.647,192.218 137.772,192.218 138.022 C 192.218 138.297,192.343 138.397,192.686 138.397 C 193.108 138.397,193.155 138.472,193.155 139.147 L 193.155 139.897 193.905 139.897 C 194.530 139.897,194.655 139.959,194.655 140.272 C 194.655 140.522,194.780 140.647,195.030 140.647 C 195.306 140.647,195.406 140.772,195.406 141.116 C 195.406 141.538,195.481 141.585,196.156 141.585 C 196.781 141.585,196.906 141.647,196.906 141.960 C 196.906 142.305,197.031 142.335,198.500 142.335 C 199.969 142.335,200.094 142.364,200.094 142.710 C 200.094 143.046,200.219 143.085,201.313 143.085 C 202.407 143.085,202.532 143.046,202.532 142.710 C 202.532 142.360,202.657 142.335,204.407 142.335 C 206.157 142.335,206.282 142.310,206.282 141.960 C 206.282 141.685,206.407 141.585,206.751 141.585 C 207.126 141.585,207.220 141.491,207.220 141.116 C 207.220 140.694,207.295 140.647,207.970 140.647 C 208.595 140.647,208.720 140.584,208.720 140.272 C 208.720 140.022,208.845 139.897,209.095 139.897 C 209.345 139.897,209.470 139.772,209.470 139.522 C 209.470 139.272,209.595 139.147,209.845 139.147 C 210.095 139.147,210.220 139.022,210.220 138.772 C 210.220 138.522,210.345 138.397,210.595 138.397 C 210.908 138.397,210.970 138.272,210.970 137.647 C 210.970 136.971,211.017 136.896,211.439 136.896 C 211.870 136.896,211.908 136.828,211.908 136.053 C 211.908 135.334,211.964 135.209,212.283 135.209 C 212.645 135.209,212.658 135.084,212.658 131.739 C 212.658 128.395,212.645 128.270,212.283 128.270 C 211.947 128.270,211.908 128.145,211.908 127.051 C 211.908 125.876,211.891 125.832,211.439 125.832 C 211.095 125.832,210.970 125.732,210.970 125.457 C 210.970 125.207,210.845 125.082,210.595 125.082 C 210.345 125.082,210.220 124.957,210.220 124.707 C 210.220 124.457,210.095 124.332,209.845 124.332 C 209.533 124.332,209.470 124.207,209.470 123.582 L 209.470 122.832 208.720 122.832 C 208.045 122.832,207.970 122.785,207.970 122.363 C 207.970 122.019,207.870 121.894,207.595 121.894 C 207.345 121.894,207.220 121.769,207.220 121.519 C 207.220 121.199,207.095 121.144,206.376 121.144 C 205.657 121.144,205.532 121.088,205.532 120.769 C 205.532 120.406,205.407 120.394,201.688 120.394 C 197.968 120.394,197.843 120.406,197.843 120.769 M250.164 140.272 C 250.164 140.623,250.039 140.647,248.195 140.647 L 246.226 140.647 246.226 141.116 C 246.226 141.538,246.151 141.585,245.476 141.585 C 244.851 141.585,244.726 141.647,244.726 141.960 C 244.726 142.279,244.601 142.335,243.882 142.335 C 243.163 142.335,243.038 142.390,243.038 142.710 C 243.038 142.960,242.913 143.085,242.663 143.085 C 242.350 143.085,242.288 143.210,242.288 143.835 C 242.288 144.460,242.225 144.585,241.913 144.585 C 241.663 144.585,241.538 144.710,241.538 144.960 C 241.538 145.210,241.413 145.335,241.163 145.335 C 240.843 145.335,240.788 145.460,240.788 146.179 C 240.788 146.898,240.732 147.023,240.413 147.023 C 240.100 147.023,240.038 147.148,240.038 147.773 C 240.038 148.448,239.991 148.523,239.569 148.523 L 239.100 148.523 239.100 151.617 L 239.100 154.712 239.569 154.712 C 239.999 154.712,240.038 154.780,240.038 155.556 C 240.038 156.274,240.093 156.399,240.413 156.399 C 240.725 156.399,240.788 156.524,240.788 157.150 C 240.788 157.775,240.850 157.900,241.163 157.900 C 241.413 157.900,241.538 158.025,241.538 158.275 C 241.538 158.525,241.663 158.650,241.913 158.650 C 242.163 158.650,242.288 158.775,242.288 159.025 C 242.288 159.275,242.413 159.400,242.663 159.400 C 242.938 159.400,243.038 159.525,243.038 159.869 C 243.038 160.213,243.138 160.338,243.413 160.338 C 243.663 160.338,243.788 160.463,243.788 160.713 C 243.788 160.988,243.913 161.088,244.257 161.088 C 244.601 161.088,244.726 161.188,244.726 161.463 C 244.726 161.775,244.851 161.838,245.476 161.838 C 246.101 161.838,246.226 161.900,246.226 162.213 C 246.226 162.577,246.351 162.588,250.539 162.588 C 254.727 162.588,254.852 162.577,254.852 162.213 C 254.852 161.900,254.977 161.838,255.602 161.838 C 256.228 161.838,256.353 161.775,256.353 161.463 C 256.353 161.213,256.478 161.088,256.728 161.088 C 256.978 161.088,257.103 160.963,257.103 160.713 C 257.103 160.463,257.228 160.338,257.478 160.338 C 257.753 160.338,257.853 160.213,257.853 159.869 C 257.853 159.494,257.947 159.400,258.322 159.400 C 258.665 159.400,258.790 159.300,258.790 159.025 C 258.790 158.775,258.915 158.650,259.165 158.650 C 259.416 158.650,259.541 158.525,259.541 158.275 C 259.541 158.025,259.666 157.900,259.916 157.900 C 260.228 157.900,260.291 157.775,260.291 157.150 C 260.291 156.524,260.353 156.399,260.666 156.399 C 260.985 156.399,261.041 156.274,261.041 155.556 C 261.041 154.837,261.096 154.712,261.416 154.712 C 261.776 154.712,261.791 154.587,261.791 151.617 C 261.791 148.648,261.776 148.523,261.416 148.523 C 261.082 148.523,261.041 148.398,261.041 147.398 C 261.041 146.398,260.999 146.273,260.666 146.273 C 260.391 146.273,260.291 146.148,260.291 145.804 C 260.291 145.460,260.191 145.335,259.916 145.335 C 259.603 145.335,259.541 145.210,259.541 144.585 C 259.541 143.960,259.478 143.835,259.165 143.835 C 258.915 143.835,258.790 143.710,258.790 143.460 C 258.790 143.185,258.665 143.085,258.322 143.085 C 257.978 143.085,257.853 142.985,257.853 142.710 C 257.853 142.397,257.728 142.335,257.103 142.335 C 256.478 142.335,256.353 142.272,256.353 141.960 C 256.353 141.647,256.228 141.585,255.602 141.585 C 254.927 141.585,254.852 141.538,254.852 141.116 L 254.852 140.647 252.883 140.647 C 251.039 140.647,250.914 140.623,250.914 140.272 C 250.914 140.022,250.789 139.897,250.539 139.897 C 250.289 139.897,250.164 140.022,250.164 140.272 M148.523 141.116 C 148.523 141.538,148.448 141.585,147.773 141.585 C 147.148 141.585,147.023 141.647,147.023 141.960 C 147.023 142.279,146.898 142.335,146.179 142.335 C 145.460 142.335,145.335 142.390,145.335 142.710 C 145.335 142.960,145.210 143.085,144.960 143.085 C 144.710 143.085,144.585 143.210,144.585 143.460 C 144.585 143.710,144.460 143.835,144.210 143.835 C 143.960 143.835,143.835 143.960,143.835 144.210 C 143.835 144.460,143.710 144.585,143.460 144.585 C 143.140 144.585,143.085 144.710,143.085 145.429 C 143.085 146.148,143.029 146.273,142.710 146.273 C 142.397 146.273,142.335 146.398,142.335 147.023 C 142.335 147.648,142.272 147.773,141.960 147.773 C 141.626 147.773,141.585 147.898,141.585 148.898 C 141.585 149.973,141.564 150.023,141.116 150.023 C 140.652 150.023,140.647 150.042,140.647 151.617 C 140.647 153.193,140.652 153.211,141.116 153.211 C 141.568 153.211,141.585 153.255,141.585 154.430 C 141.585 155.524,141.623 155.649,141.960 155.649 C 142.272 155.649,142.335 155.774,142.335 156.399 C 142.335 157.025,142.397 157.150,142.710 157.150 C 143.022 157.150,143.085 157.275,143.085 157.900 C 143.085 158.525,143.147 158.650,143.460 158.650 C 143.710 158.650,143.835 158.775,143.835 159.025 C 143.835 159.275,143.960 159.400,144.210 159.400 C 144.485 159.400,144.585 159.525,144.585 159.869 C 144.585 160.213,144.685 160.338,144.960 160.338 C 145.210 160.338,145.335 160.463,145.335 160.713 C 145.335 161.032,145.460 161.088,146.179 161.088 C 146.898 161.088,147.023 161.143,147.023 161.463 C 147.023 161.713,147.148 161.838,147.398 161.838 C 147.648 161.838,147.773 161.963,147.773 162.213 C 147.773 162.578,147.898 162.588,152.461 162.588 C 157.025 162.588,157.150 162.578,157.150 162.213 C 157.150 161.963,157.275 161.838,157.525 161.838 C 157.775 161.838,157.900 161.713,157.900 161.463 C 157.900 161.150,158.025 161.088,158.650 161.088 C 159.275 161.088,159.400 161.025,159.400 160.713 C 159.400 160.438,159.525 160.338,159.869 160.338 C 160.244 160.338,160.338 160.244,160.338 159.869 C 160.338 159.525,160.438 159.400,160.713 159.400 C 160.963 159.400,161.088 159.275,161.088 159.025 C 161.088 158.775,161.213 158.650,161.463 158.650 C 161.775 158.650,161.838 158.525,161.838 157.900 C 161.838 157.275,161.900 157.150,162.213 157.150 C 162.525 157.150,162.588 157.025,162.588 156.399 C 162.588 155.774,162.650 155.649,162.963 155.649 C 163.300 155.649,163.338 155.524,163.338 154.430 C 163.338 153.336,163.376 153.211,163.713 153.211 C 164.059 153.211,164.088 153.086,164.088 151.617 C 164.088 150.148,164.059 150.023,163.713 150.023 C 163.380 150.023,163.338 149.898,163.338 148.898 C 163.338 147.898,163.296 147.773,162.963 147.773 C 162.650 147.773,162.588 147.648,162.588 147.023 C 162.588 146.398,162.525 146.273,162.213 146.273 C 161.893 146.273,161.838 146.148,161.838 145.429 C 161.838 144.710,161.782 144.585,161.463 144.585 C 161.213 144.585,161.088 144.460,161.088 144.210 C 161.088 143.960,160.963 143.835,160.713 143.835 C 160.463 143.835,160.338 143.710,160.338 143.460 C 160.338 143.185,160.213 143.085,159.869 143.085 C 159.525 143.085,159.400 142.985,159.400 142.710 C 159.400 142.397,159.275 142.335,158.650 142.335 C 158.025 142.335,157.900 142.272,157.900 141.960 C 157.900 141.647,157.775 141.585,157.150 141.585 C 156.474 141.585,156.399 141.538,156.399 141.116 L 156.399 140.647 152.461 140.647 L 148.523 140.647 148.523 141.116 M78.200 165.307 C 78.200 166.401,78.161 166.526,77.825 166.526 C 77.473 166.526,77.450 166.651,77.450 168.495 C 77.450 170.339,77.426 170.464,77.075 170.464 C 76.723 170.464,76.699 170.589,76.699 172.433 C 76.699 174.277,76.676 174.402,76.324 174.402 C 75.969 174.402,75.949 174.527,75.949 176.746 L 75.949 179.090 75.481 179.090 L 75.012 179.090 75.012 182.185 C 75.012 185.154,74.997 185.279,74.637 185.279 C 74.270 185.279,74.262 185.404,74.262 191.092 C 74.262 196.781,74.254 196.906,73.887 196.906 C 73.525 196.906,73.511 197.031,73.511 200.469 C 73.511 203.907,73.525 204.032,73.887 204.032 C 74.254 204.032,74.262 204.157,74.262 210.314 C 74.262 216.471,74.269 216.596,74.637 216.596 C 74.994 216.596,75.012 216.721,75.012 219.316 L 75.012 222.035 75.481 222.035 L 75.949 222.035 75.949 224.379 C 75.949 226.598,75.969 226.723,76.324 226.723 C 76.676 226.723,76.699 226.848,76.699 228.692 C 76.699 230.536,76.723 230.661,77.075 230.661 C 77.425 230.661,77.450 230.786,77.450 232.536 C 77.450 234.287,77.475 234.412,77.825 234.412 C 78.161 234.412,78.200 234.537,78.200 235.631 L 78.200 236.850 80.169 236.850 C 82.013 236.850,82.138 236.826,82.138 236.474 C 82.138 236.129,82.263 236.099,83.732 236.099 C 85.201 236.099,85.326 236.070,85.326 235.724 C 85.326 235.412,85.451 235.349,86.076 235.349 C 86.751 235.349,86.826 235.302,86.826 234.880 C 86.826 234.432,86.876 234.412,87.951 234.412 C 88.951 234.412,89.076 234.370,89.076 234.037 C 89.076 233.717,89.201 233.662,89.920 233.662 C 90.639 233.662,90.764 233.606,90.764 233.286 C 90.764 232.974,90.889 232.911,91.514 232.911 C 92.139 232.911,92.264 232.849,92.264 232.536 C 92.264 232.286,92.389 232.161,92.639 232.161 C 92.890 232.161,93.015 232.036,93.015 231.786 C 93.015 231.467,93.140 231.411,93.858 231.411 C 94.577 231.411,94.702 231.356,94.702 231.036 C 94.702 230.786,94.827 230.661,95.077 230.661 C 95.352 230.661,95.452 230.536,95.452 230.192 C 95.452 229.770,95.527 229.723,96.203 229.723 C 96.828 229.723,96.953 229.661,96.953 229.348 C 96.953 229.098,97.078 228.973,97.328 228.973 C 97.578 228.973,97.703 228.848,97.703 228.598 C 97.703 228.348,97.828 228.223,98.078 228.223 C 98.328 228.223,98.453 228.098,98.453 227.848 C 98.453 227.573,98.578 227.473,98.922 227.473 C 99.266 227.473,99.391 227.373,99.391 227.098 C 99.391 226.848,99.516 226.723,99.766 226.723 C 100.016 226.723,100.141 226.598,100.141 226.348 C 100.141 226.098,100.266 225.973,100.516 225.973 C 100.791 225.973,100.891 225.848,100.891 225.504 C 100.891 225.160,100.991 225.035,101.266 225.035 C 101.516 225.035,101.641 224.910,101.641 224.660 C 101.641 224.410,101.766 224.285,102.016 224.285 C 102.328 224.285,102.391 224.160,102.391 223.535 C 102.391 222.910,102.454 222.785,102.766 222.785 C 103.016 222.785,103.141 222.660,103.141 222.410 C 103.141 222.135,103.266 222.035,103.610 222.035 C 103.954 222.035,104.079 221.935,104.079 221.660 C 104.079 221.410,104.204 221.285,104.454 221.285 C 104.773 221.285,104.829 221.160,104.829 220.441 C 104.829 219.722,104.884 219.597,105.204 219.597 C 105.516 219.597,105.579 219.472,105.579 218.847 C 105.579 218.222,105.642 218.097,105.954 218.097 C 106.204 218.097,106.329 217.972,106.329 217.722 C 106.329 217.471,106.454 217.346,106.704 217.346 C 107.041 217.346,107.079 217.221,107.079 216.128 C 107.079 215.034,107.118 214.909,107.454 214.909 C 107.767 214.909,107.829 214.784,107.829 214.158 C 107.829 213.483,107.876 213.408,108.298 213.408 C 108.750 213.408,108.767 213.365,108.767 212.189 C 108.767 211.095,108.805 210.970,109.142 210.970 C 109.492 210.970,109.517 210.845,109.517 209.095 C 109.517 207.345,109.542 207.220,109.892 207.220 C 110.260 207.220,110.267 207.095,110.267 200.563 C 110.267 194.030,110.260 193.905,109.892 193.905 C 109.547 193.905,109.517 193.780,109.517 192.311 C 109.517 190.842,109.488 190.717,109.142 190.717 C 108.809 190.717,108.767 190.592,108.767 189.592 C 108.767 188.517,108.746 188.467,108.298 188.467 C 107.846 188.467,107.829 188.423,107.829 187.248 C 107.829 186.154,107.791 186.029,107.454 186.029 C 107.142 186.029,107.079 185.904,107.079 185.279 C 107.079 184.654,107.017 184.529,106.704 184.529 C 106.385 184.529,106.329 184.404,106.329 183.685 C 106.329 182.966,106.274 182.841,105.954 182.841 C 105.642 182.841,105.579 182.716,105.579 182.091 C 105.579 181.466,105.516 181.341,105.204 181.341 C 104.954 181.341,104.829 181.216,104.829 180.966 C 104.829 180.716,104.704 180.591,104.454 180.591 C 104.141 180.591,104.079 180.466,104.079 179.841 C 104.079 179.165,104.032 179.090,103.610 179.090 C 103.235 179.090,103.141 178.997,103.141 178.622 C 103.141 178.278,103.041 178.153,102.766 178.153 C 102.516 178.153,102.391 178.028,102.391 177.778 C 102.391 177.528,102.266 177.403,102.016 177.403 C 101.766 177.403,101.641 177.278,101.641 177.028 C 101.641 176.778,101.516 176.653,101.266 176.653 C 100.953 176.653,100.891 176.528,100.891 175.902 C 100.891 175.277,100.828 175.152,100.516 175.152 C 100.266 175.152,100.141 175.027,100.141 174.777 C 100.141 174.527,100.016 174.402,99.766 174.402 C 99.491 174.402,99.391 174.277,99.391 173.933 C 99.391 173.558,99.297 173.465,98.922 173.465 C 98.578 173.465,98.453 173.365,98.453 173.090 C 98.453 172.777,98.328 172.714,97.703 172.714 C 97.078 172.714,96.953 172.652,96.953 172.339 C 96.953 172.089,96.828 171.964,96.578 171.964 C 96.328 171.964,96.203 171.839,96.203 171.589 C 96.203 171.339,96.078 171.214,95.827 171.214 C 95.577 171.214,95.452 171.089,95.452 170.839 C 95.452 170.520,95.327 170.464,94.609 170.464 C 93.890 170.464,93.765 170.409,93.765 170.089 C 93.765 169.839,93.640 169.714,93.390 169.714 C 93.115 169.714,93.015 169.589,93.015 169.245 C 93.015 168.823,92.940 168.776,92.264 168.776 C 91.639 168.776,91.514 168.714,91.514 168.401 C 91.514 168.089,91.389 168.026,90.764 168.026 C 90.139 168.026,90.014 167.964,90.014 167.651 C 90.014 167.332,89.889 167.276,89.170 167.276 C 88.451 167.276,88.326 167.221,88.326 166.901 C 88.326 166.568,88.201 166.526,87.201 166.526 C 86.201 166.526,86.076 166.484,86.076 166.151 C 86.076 165.814,85.951 165.776,84.857 165.776 C 83.763 165.776,83.638 165.737,83.638 165.401 C 83.638 165.057,83.513 165.026,82.138 165.026 C 80.663 165.026,80.638 165.018,80.638 164.557 C 80.638 164.105,80.594 164.088,79.419 164.088 L 78.200 164.088 78.200 165.307 M322.738 164.557 C 322.738 165.018,322.713 165.026,321.238 165.026 C 319.862 165.026,319.737 165.057,319.737 165.401 C 319.737 165.737,319.612 165.776,318.519 165.776 C 317.425 165.776,317.300 165.814,317.300 166.151 C 317.300 166.484,317.175 166.526,316.174 166.526 C 315.174 166.526,315.049 166.568,315.049 166.901 C 315.049 167.221,314.924 167.276,314.205 167.276 C 313.486 167.276,313.361 167.332,313.361 167.651 C 313.361 167.964,313.236 168.026,312.611 168.026 C 311.986 168.026,311.861 168.089,311.861 168.401 C 311.861 168.714,311.736 168.776,311.111 168.776 C 310.436 168.776,310.361 168.823,310.361 169.245 C 310.361 169.620,310.267 169.714,309.892 169.714 C 309.548 169.714,309.423 169.814,309.423 170.089 C 309.423 170.402,309.298 170.464,308.673 170.464 C 308.048 170.464,307.923 170.527,307.923 170.839 C 307.923 171.089,307.798 171.214,307.548 171.214 C 307.298 171.214,307.173 171.339,307.173 171.589 C 307.173 171.839,307.048 171.964,306.798 171.964 C 306.548 171.964,306.423 172.089,306.423 172.339 C 306.423 172.659,306.298 172.714,305.579 172.714 C 304.860 172.714,304.735 172.770,304.735 173.090 C 304.735 173.340,304.610 173.465,304.360 173.465 C 304.085 173.465,303.985 173.590,303.985 173.933 C 303.985 174.277,303.885 174.402,303.610 174.402 C 303.360 174.402,303.235 174.527,303.235 174.777 C 303.235 175.027,303.110 175.152,302.860 175.152 C 302.547 175.152,302.485 175.277,302.485 175.902 C 302.485 176.528,302.422 176.653,302.110 176.653 C 301.860 176.653,301.735 176.778,301.735 177.028 C 301.735 177.278,301.610 177.403,301.360 177.403 C 301.110 177.403,300.985 177.528,300.985 177.778 C 300.985 178.053,300.860 178.153,300.516 178.153 C 300.141 178.153,300.047 178.247,300.047 178.622 C 300.047 178.965,299.947 179.090,299.672 179.090 C 299.359 179.090,299.297 179.216,299.297 179.841 C 299.297 180.466,299.234 180.591,298.922 180.591 C 298.672 180.591,298.547 180.716,298.547 180.966 C 298.547 181.216,298.422 181.341,298.172 181.341 C 297.859 181.341,297.797 181.466,297.797 182.091 C 297.797 182.716,297.734 182.841,297.421 182.841 C 297.102 182.841,297.046 182.966,297.046 183.685 C 297.046 184.404,296.991 184.529,296.671 184.529 C 296.359 184.529,296.296 184.654,296.296 185.279 C 296.296 185.954,296.249 186.029,295.827 186.029 C 295.375 186.029,295.359 186.073,295.359 187.248 C 295.359 188.342,295.320 188.467,294.984 188.467 C 294.650 188.467,294.609 188.592,294.609 189.592 C 294.609 190.592,294.567 190.717,294.233 190.717 C 293.888 190.717,293.858 190.842,293.858 192.311 C 293.858 193.780,293.829 193.905,293.483 193.905 C 293.115 193.905,293.108 194.030,293.108 200.563 C 293.108 207.095,293.115 207.220,293.483 207.220 C 293.833 207.220,293.858 207.345,293.858 209.095 C 293.858 210.845,293.883 210.970,294.233 210.970 C 294.570 210.970,294.609 211.095,294.609 212.189 C 294.609 213.283,294.647 213.408,294.984 213.408 C 295.296 213.408,295.359 213.533,295.359 214.158 C 295.359 214.834,295.406 214.909,295.827 214.909 C 296.279 214.909,296.296 214.952,296.296 216.128 C 296.296 217.221,296.335 217.346,296.671 217.346 C 296.921 217.346,297.046 217.471,297.046 217.722 C 297.046 217.972,297.171 218.097,297.421 218.097 C 297.734 218.097,297.797 218.222,297.797 218.847 C 297.797 219.472,297.859 219.597,298.172 219.597 C 298.491 219.597,298.547 219.722,298.547 220.441 C 298.547 221.160,298.602 221.285,298.922 221.285 C 299.172 221.285,299.297 221.410,299.297 221.660 C 299.297 221.910,299.422 222.035,299.672 222.035 C 299.922 222.035,300.047 222.160,300.047 222.410 C 300.047 222.685,300.172 222.785,300.516 222.785 C 300.938 222.785,300.985 222.860,300.985 223.535 C 300.985 224.160,301.047 224.285,301.360 224.285 C 301.610 224.285,301.735 224.410,301.735 224.660 C 301.735 224.910,301.860 225.035,302.110 225.035 C 302.385 225.035,302.485 225.160,302.485 225.504 C 302.485 225.848,302.585 225.973,302.860 225.973 C 303.110 225.973,303.235 226.098,303.235 226.348 C 303.235 226.598,303.360 226.723,303.610 226.723 C 303.860 226.723,303.985 226.848,303.985 227.098 C 303.985 227.348,304.110 227.473,304.360 227.473 C 304.610 227.473,304.735 227.598,304.735 227.848 C 304.735 228.123,304.860 228.223,305.204 228.223 C 305.548 228.223,305.673 228.323,305.673 228.598 C 305.673 228.848,305.798 228.973,306.048 228.973 C 306.298 228.973,306.423 229.098,306.423 229.348 C 306.423 229.661,306.548 229.723,307.173 229.723 C 307.848 229.723,307.923 229.770,307.923 230.192 C 307.923 230.536,308.023 230.661,308.298 230.661 C 308.548 230.661,308.673 230.786,308.673 231.036 C 308.673 231.356,308.798 231.411,309.517 231.411 C 310.236 231.411,310.361 231.467,310.361 231.786 C 310.361 232.036,310.486 232.161,310.736 232.161 C 310.986 232.161,311.111 232.286,311.111 232.536 C 311.111 232.849,311.236 232.911,311.861 232.911 C 312.486 232.911,312.611 232.974,312.611 233.286 C 312.611 233.599,312.736 233.662,313.361 233.662 C 313.987 233.662,314.112 233.724,314.112 234.037 C 314.112 234.373,314.237 234.412,315.331 234.412 C 316.506 234.412,316.549 234.428,316.549 234.880 C 316.549 235.302,316.624 235.349,317.300 235.349 C 317.925 235.349,318.050 235.412,318.050 235.724 C 318.050 236.070,318.175 236.099,319.644 236.099 C 321.113 236.099,321.238 236.129,321.238 236.474 C 321.238 236.826,321.363 236.850,323.207 236.850 L 325.176 236.850 325.176 235.631 C 325.176 234.537,325.214 234.412,325.551 234.412 C 325.901 234.412,325.926 234.287,325.926 232.536 C 325.926 230.786,325.951 230.661,326.301 230.661 C 326.652 230.661,326.676 230.536,326.676 228.692 C 326.676 226.848,326.700 226.723,327.051 226.723 C 327.406 226.723,327.426 226.598,327.426 224.379 C 327.426 222.160,327.446 222.035,327.801 222.035 C 328.159 222.035,328.176 221.910,328.176 219.316 L 328.176 216.596 328.645 216.596 L 329.114 216.596 329.114 210.314 C 329.114 204.157,329.121 204.032,329.489 204.032 C 329.851 204.032,329.864 203.907,329.864 200.469 C 329.864 197.031,329.851 196.906,329.489 196.906 C 329.122 196.906,329.114 196.781,329.114 191.092 L 329.114 185.279 328.645 185.279 L 328.176 185.279 328.176 182.185 C 328.176 179.216,328.161 179.090,327.801 179.090 C 327.446 179.090,327.426 178.965,327.426 176.746 C 327.426 174.527,327.406 174.402,327.051 174.402 C 326.700 174.402,326.676 174.277,326.676 172.433 C 326.676 170.589,326.652 170.464,326.301 170.464 C 325.950 170.464,325.926 170.339,325.926 168.495 C 325.926 166.651,325.902 166.526,325.551 166.526 C 325.214 166.526,325.176 166.401,325.176 165.307 L 325.176 164.088 323.957 164.088 C 322.782 164.088,322.738 164.105,322.738 164.557 M130.520 189.592 C 130.520 189.936,130.395 189.967,129.020 189.967 C 127.645 189.967,127.520 189.998,127.520 190.342 C 127.520 190.662,127.395 190.717,126.676 190.717 C 125.957 190.717,125.832 190.773,125.832 191.092 C 125.832 191.342,125.707 191.467,125.457 191.467 C 125.207 191.467,125.082 191.592,125.082 191.842 C 125.082 192.093,124.957 192.218,124.707 192.218 C 124.432 192.218,124.332 192.343,124.332 192.686 C 124.332 193.030,124.232 193.155,123.957 193.155 C 123.707 193.155,123.582 193.280,123.582 193.530 C 123.582 193.780,123.457 193.905,123.207 193.905 C 122.894 193.905,122.832 194.030,122.832 194.655 C 122.832 195.331,122.785 195.406,122.363 195.406 C 121.941 195.406,121.894 195.481,121.894 196.156 C 121.894 196.781,121.832 196.906,121.519 196.906 C 121.156 196.906,121.144 197.031,121.144 200.844 C 121.144 204.657,121.156 204.782,121.519 204.782 C 121.832 204.782,121.894 204.907,121.894 205.532 C 121.894 206.207,121.941 206.282,122.363 206.282 C 122.738 206.282,122.832 206.376,122.832 206.751 C 122.832 207.095,122.932 207.220,123.207 207.220 C 123.457 207.220,123.582 207.345,123.582 207.595 C 123.582 207.845,123.707 207.970,123.957 207.970 C 124.269 207.970,124.332 208.095,124.332 208.720 L 124.332 209.470 125.082 209.470 C 125.707 209.470,125.832 209.533,125.832 209.845 C 125.832 210.095,125.957 210.220,126.207 210.220 C 126.457 210.220,126.582 210.345,126.582 210.595 C 126.582 210.932,126.707 210.970,127.801 210.970 C 128.976 210.970,129.020 210.987,129.020 211.439 L 129.020 211.908 132.489 211.908 L 135.959 211.908 135.959 211.439 C 135.959 211.009,136.028 210.970,136.803 210.970 C 137.521 210.970,137.647 210.915,137.647 210.595 C 137.647 210.283,137.772 210.220,138.397 210.220 C 139.022 210.220,139.147 210.158,139.147 209.845 C 139.147 209.595,139.272 209.470,139.522 209.470 C 139.772 209.470,139.897 209.345,139.897 209.095 C 139.897 208.845,140.022 208.720,140.272 208.720 C 140.522 208.720,140.647 208.595,140.647 208.345 C 140.647 208.070,140.772 207.970,141.116 207.970 C 141.546 207.970,141.585 207.901,141.585 207.126 C 141.585 206.407,141.640 206.282,141.960 206.282 C 142.210 206.282,142.335 206.157,142.335 205.907 C 142.335 205.657,142.460 205.532,142.710 205.532 C 143.043 205.532,143.085 205.407,143.085 204.407 C 143.085 203.407,143.127 203.282,143.460 203.282 C 143.815 203.282,143.835 203.157,143.835 200.938 C 143.835 198.719,143.815 198.594,143.460 198.594 C 143.123 198.594,143.085 198.469,143.085 197.375 C 143.085 196.281,143.046 196.156,142.710 196.156 C 142.397 196.156,142.335 196.031,142.335 195.406 C 142.335 194.780,142.272 194.655,141.960 194.655 C 141.710 194.655,141.585 194.530,141.585 194.280 C 141.585 194.005,141.460 193.905,141.116 193.905 C 140.685 193.905,140.647 193.837,140.647 193.061 L 140.647 192.218 139.897 192.218 C 139.272 192.218,139.147 192.155,139.147 191.842 C 139.147 191.592,139.022 191.467,138.772 191.467 C 138.522 191.467,138.397 191.342,138.397 191.092 C 138.397 190.780,138.272 190.717,137.647 190.717 C 137.021 190.717,136.896 190.655,136.896 190.342 C 136.896 189.997,136.771 189.967,135.302 189.967 C 133.833 189.967,133.708 189.938,133.708 189.592 C 133.708 189.246,133.583 189.217,132.114 189.217 C 130.645 189.217,130.520 189.246,130.520 189.592 M269.667 189.592 C 269.667 189.938,269.542 189.967,268.073 189.967 C 266.604 189.967,266.479 189.997,266.479 190.342 C 266.479 190.655,266.354 190.717,265.729 190.717 C 265.104 190.717,264.979 190.780,264.979 191.092 C 264.979 191.342,264.854 191.467,264.604 191.467 C 264.354 191.467,264.229 191.592,264.229 191.842 C 264.229 192.162,264.104 192.218,263.385 192.218 L 262.541 192.218 262.541 193.061 C 262.541 193.780,262.485 193.905,262.166 193.905 C 261.916 193.905,261.791 194.030,261.791 194.280 C 261.791 194.530,261.666 194.655,261.416 194.655 C 261.103 194.655,261.041 194.780,261.041 195.406 C 261.041 196.031,260.978 196.156,260.666 196.156 C 260.329 196.156,260.291 196.281,260.291 197.375 C 260.291 198.469,260.252 198.594,259.916 198.594 C 259.561 198.594,259.541 198.719,259.541 200.938 C 259.541 203.157,259.561 203.282,259.916 203.282 C 260.249 203.282,260.291 203.407,260.291 204.407 C 260.291 205.407,260.332 205.532,260.666 205.532 C 260.916 205.532,261.041 205.657,261.041 205.907 C 261.041 206.157,261.166 206.282,261.416 206.282 C 261.735 206.282,261.791 206.407,261.791 207.126 C 261.791 207.845,261.846 207.970,262.166 207.970 C 262.416 207.970,262.541 208.095,262.541 208.345 C 262.541 208.620,262.666 208.720,263.010 208.720 C 263.354 208.720,263.479 208.820,263.479 209.095 C 263.479 209.345,263.604 209.470,263.854 209.470 C 264.104 209.470,264.229 209.595,264.229 209.845 C 264.229 210.158,264.354 210.220,264.979 210.220 C 265.604 210.220,265.729 210.283,265.729 210.595 C 265.729 210.908,265.854 210.970,266.479 210.970 C 267.154 210.970,267.229 211.017,267.229 211.439 L 267.229 211.908 270.792 211.908 L 274.355 211.908 274.355 211.439 C 274.355 210.991,274.405 210.970,275.481 210.970 C 276.481 210.970,276.606 210.929,276.606 210.595 C 276.606 210.320,276.731 210.220,277.075 210.220 C 277.418 210.220,277.543 210.120,277.543 209.845 C 277.543 209.533,277.668 209.470,278.293 209.470 L 279.044 209.470 279.044 208.720 C 279.044 208.095,279.106 207.970,279.419 207.970 C 279.669 207.970,279.794 207.845,279.794 207.595 C 279.794 207.345,279.919 207.220,280.169 207.220 C 280.444 207.220,280.544 207.095,280.544 206.751 C 280.544 206.407,280.644 206.282,280.919 206.282 C 281.231 206.282,281.294 206.157,281.294 205.532 C 281.294 204.857,281.341 204.782,281.763 204.782 L 282.232 204.782 282.232 200.844 L 282.232 196.906 281.763 196.906 C 281.341 196.906,281.294 196.831,281.294 196.156 C 281.294 195.531,281.231 195.406,280.919 195.406 C 280.606 195.406,280.544 195.281,280.544 194.655 C 280.544 194.030,280.481 193.905,280.169 193.905 C 279.919 193.905,279.794 193.780,279.794 193.530 C 279.794 193.280,279.669 193.155,279.419 193.155 C 279.144 193.155,279.044 193.030,279.044 192.686 C 279.044 192.343,278.944 192.218,278.669 192.218 C 278.419 192.218,278.293 192.093,278.293 191.842 C 278.293 191.592,278.168 191.467,277.918 191.467 C 277.668 191.467,277.543 191.342,277.543 191.092 C 277.543 190.773,277.418 190.717,276.699 190.717 C 275.981 190.717,275.856 190.662,275.856 190.342 C 275.856 189.998,275.731 189.967,274.355 189.967 C 272.980 189.967,272.855 189.936,272.855 189.592 C 272.855 189.246,272.730 189.217,271.261 189.217 C 269.792 189.217,269.667 189.246,269.667 189.592 M149.273 238.725 C 149.273 239.058,149.148 239.100,148.148 239.100 C 147.073 239.100,147.023 239.121,147.023 239.569 C 147.023 239.912,146.923 240.038,146.648 240.038 C 146.398 240.038,146.273 240.163,146.273 240.413 C 146.273 240.732,146.148 240.788,145.429 240.788 C 144.710 240.788,144.585 240.843,144.585 241.163 C 144.585 241.413,144.460 241.538,144.210 241.538 C 143.897 241.538,143.835 241.663,143.835 242.288 C 143.835 242.913,143.772 243.038,143.460 243.038 C 143.210 243.038,143.085 243.163,143.085 243.413 C 143.085 243.663,142.960 243.788,142.710 243.788 C 142.390 243.788,142.335 243.913,142.335 244.632 C 142.335 245.351,142.279 245.476,141.960 245.476 C 141.626 245.476,141.585 245.601,141.585 246.601 C 141.585 247.676,141.564 247.726,141.116 247.726 L 140.647 247.726 140.647 249.695 L 140.647 251.664 141.116 251.664 C 141.568 251.664,141.585 251.708,141.585 252.883 C 141.585 253.977,141.623 254.102,141.960 254.102 C 142.272 254.102,142.335 254.227,142.335 254.852 C 142.335 255.477,142.397 255.602,142.710 255.602 C 142.960 255.602,143.085 255.727,143.085 255.977 C 143.085 256.228,143.210 256.353,143.460 256.353 C 143.772 256.353,143.835 256.478,143.835 257.103 C 143.835 257.728,143.897 257.853,144.210 257.853 C 144.485 257.853,144.585 257.978,144.585 258.322 C 144.585 258.752,144.654 258.790,145.429 258.790 C 146.148 258.790,146.273 258.846,146.273 259.165 C 146.273 259.478,146.398 259.541,147.023 259.541 C 147.648 259.541,147.773 259.603,147.773 259.916 C 147.773 260.249,147.898 260.291,148.898 260.291 C 149.898 260.291,150.023 260.332,150.023 260.666 C 150.023 261.021,150.148 261.041,152.368 261.041 C 154.587 261.041,154.712 261.021,154.712 260.666 C 154.712 260.329,154.837 260.291,155.931 260.291 C 157.025 260.291,157.150 260.252,157.150 259.916 C 157.150 259.603,157.275 259.541,157.900 259.541 C 158.525 259.541,158.650 259.478,158.650 259.165 C 158.650 258.915,158.775 258.790,159.025 258.790 C 159.300 258.790,159.400 258.665,159.400 258.322 C 159.400 257.947,159.494 257.853,159.869 257.853 C 160.213 257.853,160.338 257.753,160.338 257.478 C 160.338 257.228,160.463 257.103,160.713 257.103 C 160.963 257.103,161.088 256.978,161.088 256.728 C 161.088 256.478,161.213 256.353,161.463 256.353 C 161.713 256.353,161.838 256.228,161.838 255.977 C 161.838 255.727,161.963 255.602,162.213 255.602 C 162.525 255.602,162.588 255.477,162.588 254.852 C 162.588 254.227,162.650 254.102,162.963 254.102 C 163.309 254.102,163.338 253.977,163.338 252.508 C 163.338 251.039,163.367 250.914,163.713 250.914 C 164.050 250.914,164.088 250.789,164.088 249.695 C 164.088 248.601,164.050 248.476,163.713 248.476 C 163.369 248.476,163.338 248.351,163.338 246.976 C 163.338 245.601,163.307 245.476,162.963 245.476 C 162.643 245.476,162.588 245.351,162.588 244.632 C 162.588 243.913,162.532 243.788,162.213 243.788 C 161.963 243.788,161.838 243.663,161.838 243.413 C 161.838 243.163,161.713 243.038,161.463 243.038 C 161.150 243.038,161.088 242.913,161.088 242.288 C 161.088 241.663,161.025 241.538,160.713 241.538 C 160.463 241.538,160.338 241.413,160.338 241.163 C 160.338 240.843,160.213 240.788,159.494 240.788 C 158.775 240.788,158.650 240.732,158.650 240.413 C 158.650 240.100,158.525 240.038,157.900 240.038 C 157.225 240.038,157.150 239.991,157.150 239.569 C 157.150 239.147,157.075 239.100,156.399 239.100 C 155.774 239.100,155.649 239.037,155.649 238.725 C 155.649 238.364,155.524 238.350,152.461 238.350 C 149.398 238.350,149.273 238.364,149.273 238.725 M248.476 238.725 C 248.476 239.069,248.351 239.100,246.976 239.100 C 245.501 239.100,245.476 239.108,245.476 239.569 C 245.476 239.912,245.376 240.038,245.101 240.038 C 244.851 240.038,244.726 240.163,244.726 240.413 C 244.726 240.732,244.601 240.788,243.882 240.788 C 243.163 240.788,243.038 240.843,243.038 241.163 C 243.038 241.413,242.913 241.538,242.663 241.538 C 242.413 241.538,242.288 241.663,242.288 241.913 C 242.288 242.163,242.163 242.288,241.913 242.288 C 241.600 242.288,241.538 242.413,241.538 243.038 C 241.538 243.663,241.475 243.788,241.163 243.788 C 240.843 243.788,240.788 243.913,240.788 244.632 C 240.788 245.351,240.732 245.476,240.413 245.476 C 240.100 245.476,240.038 245.601,240.038 246.226 C 240.038 246.901,239.991 246.976,239.569 246.976 L 239.100 246.976 239.100 249.695 L 239.100 252.414 239.569 252.414 C 240.021 252.414,240.038 252.458,240.038 253.633 C 240.038 254.727,240.076 254.852,240.413 254.852 C 240.663 254.852,240.788 254.977,240.788 255.227 C 240.788 255.477,240.913 255.602,241.163 255.602 C 241.475 255.602,241.538 255.727,241.538 256.353 C 241.538 256.978,241.600 257.103,241.913 257.103 C 242.163 257.103,242.288 257.228,242.288 257.478 C 242.288 257.728,242.413 257.853,242.663 257.853 C 242.938 257.853,243.038 257.978,243.038 258.322 C 243.038 258.665,243.138 258.790,243.413 258.790 C 243.663 258.790,243.788 258.915,243.788 259.165 C 243.788 259.485,243.913 259.541,244.632 259.541 C 245.351 259.541,245.476 259.596,245.476 259.916 C 245.476 260.228,245.601 260.291,246.226 260.291 C 246.851 260.291,246.976 260.353,246.976 260.666 C 246.976 261.028,247.101 261.041,250.539 261.041 C 253.977 261.041,254.102 261.028,254.102 260.666 C 254.102 260.353,254.227 260.291,254.852 260.291 C 255.477 260.291,255.602 260.228,255.602 259.916 C 255.602 259.603,255.727 259.541,256.353 259.541 C 256.978 259.541,257.103 259.478,257.103 259.165 C 257.103 258.915,257.228 258.790,257.478 258.790 C 257.753 258.790,257.853 258.665,257.853 258.322 C 257.853 257.947,257.947 257.853,258.322 257.853 C 258.665 257.853,258.790 257.753,258.790 257.478 C 258.790 257.228,258.915 257.103,259.165 257.103 C 259.416 257.103,259.541 256.978,259.541 256.728 C 259.541 256.478,259.666 256.353,259.916 256.353 C 260.228 256.353,260.291 256.228,260.291 255.602 C 260.291 254.977,260.353 254.852,260.666 254.852 C 260.985 254.852,261.041 254.727,261.041 254.008 C 261.041 253.290,261.096 253.165,261.416 253.165 C 261.777 253.165,261.791 253.040,261.791 249.695 C 261.791 246.351,261.777 246.226,261.416 246.226 C 261.103 246.226,261.041 246.101,261.041 245.476 C 261.041 244.851,260.978 244.726,260.666 244.726 C 260.346 244.726,260.291 244.601,260.291 243.882 C 260.291 243.163,260.235 243.038,259.916 243.038 C 259.666 243.038,259.541 242.913,259.541 242.663 C 259.541 242.413,259.416 242.288,259.165 242.288 C 258.915 242.288,258.790 242.163,258.790 241.913 C 258.790 241.638,258.665 241.538,258.322 241.538 C 257.978 241.538,257.853 241.438,257.853 241.163 C 257.853 240.913,257.728 240.788,257.478 240.788 C 257.228 240.788,257.103 240.663,257.103 240.413 C 257.103 240.100,256.978 240.038,256.353 240.038 C 255.677 240.038,255.602 239.991,255.602 239.569 C 255.602 239.105,255.584 239.100,254.008 239.100 C 252.539 239.100,252.414 239.070,252.414 238.725 C 252.414 238.374,252.289 238.350,250.445 238.350 C 248.601 238.350,248.476 238.374,248.476 238.725 M110.267 254.477 C 110.267 254.839,110.142 254.852,106.704 254.852 C 103.266 254.852,103.141 254.865,103.141 255.227 C 103.141 255.571,103.016 255.602,101.641 255.602 C 100.266 255.602,100.141 255.634,100.141 255.977 C 100.141 256.314,100.016 256.353,98.922 256.353 C 97.828 256.353,97.703 256.391,97.703 256.728 C 97.703 257.040,97.578 257.103,96.953 257.103 C 96.328 257.103,96.203 257.165,96.203 257.478 C 96.203 257.790,96.078 257.853,95.452 257.853 C 94.777 257.853,94.702 257.900,94.702 258.322 C 94.702 258.752,94.634 258.790,93.858 258.790 C 93.140 258.790,93.015 258.846,93.015 259.165 C 93.015 259.478,92.890 259.541,92.264 259.541 C 91.639 259.541,91.514 259.603,91.514 259.916 C 91.514 260.228,91.389 260.291,90.764 260.291 C 90.139 260.291,90.014 260.353,90.014 260.666 C 90.014 260.941,89.889 261.041,89.545 261.041 C 89.201 261.041,89.076 261.141,89.076 261.416 C 89.076 261.666,88.951 261.791,88.701 261.791 C 88.451 261.791,88.326 261.916,88.326 262.166 C 88.326 262.416,88.451 262.541,88.701 262.541 C 88.976 262.541,89.076 262.666,89.076 263.010 C 89.076 263.385,89.170 263.479,89.545 263.479 C 89.967 263.479,90.014 263.554,90.014 264.229 C 90.014 264.854,90.077 264.979,90.389 264.979 C 90.639 264.979,90.764 265.104,90.764 265.354 C 90.764 265.604,90.889 265.729,91.139 265.729 C 91.452 265.729,91.514 265.854,91.514 266.479 C 91.514 267.104,91.577 267.229,91.889 267.229 C 92.209 267.229,92.264 267.354,92.264 268.073 C 92.264 268.792,92.320 268.917,92.639 268.917 C 92.890 268.917,93.015 269.042,93.015 269.292 C 93.015 269.542,93.140 269.667,93.390 269.667 C 93.640 269.667,93.765 269.792,93.765 270.042 C 93.765 270.317,93.890 270.417,94.233 270.417 C 94.655 270.417,94.702 270.492,94.702 271.167 C 94.702 271.792,94.765 271.917,95.077 271.917 C 95.352 271.917,95.452 272.043,95.452 272.386 C 95.452 272.730,95.552 272.855,95.827 272.855 C 96.140 272.855,96.203 272.980,96.203 273.605 C 96.203 274.230,96.265 274.355,96.578 274.355 C 96.828 274.355,96.953 274.480,96.953 274.730 C 96.953 274.980,97.078 275.105,97.328 275.105 C 97.578 275.105,97.703 275.231,97.703 275.481 C 97.703 275.731,97.828 275.856,98.078 275.856 C 98.397 275.856,98.453 275.981,98.453 276.699 C 98.453 277.475,98.491 277.543,98.922 277.543 C 99.266 277.543,99.391 277.643,99.391 277.918 C 99.391 278.168,99.516 278.293,99.766 278.293 C 100.016 278.293,100.141 278.419,100.141 278.669 C 100.141 278.919,100.266 279.044,100.516 279.044 C 100.766 279.044,100.891 279.169,100.891 279.419 C 100.891 279.669,101.016 279.794,101.266 279.794 C 101.578 279.794,101.641 279.919,101.641 280.544 C 101.641 281.169,101.703 281.294,102.016 281.294 C 102.291 281.294,102.391 281.419,102.391 281.763 C 102.391 282.107,102.491 282.232,102.766 282.232 C 103.016 282.232,103.141 282.357,103.141 282.607 C 103.141 282.882,103.266 282.982,103.610 282.982 C 103.954 282.982,104.079 283.082,104.079 283.357 C 104.079 283.607,104.204 283.732,104.454 283.732 C 104.704 283.732,104.829 283.857,104.829 284.107 C 104.829 284.357,104.954 284.482,105.204 284.482 C 105.454 284.482,105.579 284.607,105.579 284.857 C 105.579 285.107,105.704 285.232,105.954 285.232 C 106.204 285.232,106.329 285.357,106.329 285.607 C 106.329 285.857,106.454 285.982,106.704 285.982 C 106.979 285.982,107.079 286.107,107.079 286.451 C 107.079 286.795,107.179 286.920,107.454 286.920 C 107.767 286.920,107.829 287.045,107.829 287.670 C 107.829 288.345,107.876 288.420,108.298 288.420 C 108.642 288.420,108.767 288.520,108.767 288.795 C 108.767 289.045,108.892 289.170,109.142 289.170 C 109.392 289.170,109.517 289.295,109.517 289.545 C 109.517 289.795,109.642 289.920,109.892 289.920 C 110.142 289.920,110.267 290.045,110.267 290.295 C 110.267 290.545,110.392 290.670,110.642 290.670 C 110.917 290.670,111.017 290.795,111.017 291.139 C 111.017 291.483,111.117 291.608,111.392 291.608 C 111.642 291.608,111.767 291.733,111.767 291.983 C 111.767 292.233,111.892 292.358,112.143 292.358 C 112.393 292.358,112.518 292.483,112.518 292.733 C 112.518 293.008,112.643 293.108,112.986 293.108 C 113.330 293.108,113.455 293.208,113.455 293.483 C 113.455 293.733,113.580 293.858,113.830 293.858 C 114.080 293.858,114.205 293.983,114.205 294.233 C 114.205 294.484,114.330 294.609,114.580 294.609 C 114.830 294.609,114.955 294.734,114.955 294.984 C 114.955 295.234,115.080 295.359,115.331 295.359 C 115.606 295.359,115.706 295.484,115.706 295.827 C 115.706 296.249,115.781 296.296,116.456 296.296 C 117.081 296.296,117.206 296.359,117.206 296.671 C 117.206 296.946,117.331 297.046,117.675 297.046 C 118.018 297.046,118.143 297.146,118.143 297.421 C 118.143 297.672,118.268 297.797,118.519 297.797 C 118.769 297.797,118.894 297.922,118.894 298.172 C 118.894 298.422,119.019 298.547,119.269 298.547 C 119.519 298.547,119.644 298.672,119.644 298.922 C 119.644 299.172,119.769 299.297,120.019 299.297 C 120.269 299.297,120.394 299.422,120.394 299.672 C 120.394 299.922,120.519 300.047,120.769 300.047 C 121.044 300.047,121.144 300.172,121.144 300.516 C 121.144 300.946,121.213 300.985,121.988 300.985 C 122.707 300.985,122.832 301.040,122.832 301.360 C 122.832 301.610,122.957 301.735,123.207 301.735 C 123.457 301.735,123.582 301.860,123.582 302.110 C 123.582 302.360,123.707 302.485,123.957 302.485 C 124.207 302.485,124.332 302.610,124.332 302.860 C 124.332 303.172,124.457 303.235,125.082 303.235 C 125.707 303.235,125.832 303.297,125.832 303.610 C 125.832 303.860,125.957 303.985,126.207 303.985 C 126.457 303.985,126.582 304.110,126.582 304.360 C 126.582 304.635,126.707 304.735,127.051 304.735 C 127.426 304.735,127.520 304.829,127.520 305.204 C 127.520 305.626,127.595 305.673,128.270 305.673 C 128.895 305.673,129.020 305.735,129.020 306.048 C 129.020 306.298,129.145 306.423,129.395 306.423 C 129.645 306.423,129.770 306.548,129.770 306.798 C 129.770 307.110,129.895 307.173,130.520 307.173 C 131.145 307.173,131.271 307.236,131.271 307.548 C 131.271 307.823,131.396 307.923,131.739 307.923 C 132.083 307.923,132.208 308.023,132.208 308.298 C 132.208 308.611,132.333 308.673,132.958 308.673 C 133.583 308.673,133.708 308.736,133.708 309.048 C 133.708 309.298,133.833 309.423,134.083 309.423 C 134.358 309.423,134.459 309.548,134.459 309.892 C 134.459 310.314,134.534 310.361,135.209 310.361 C 135.834 310.361,135.959 310.424,135.959 310.736 C 135.959 311.011,136.084 311.111,136.428 311.111 C 136.771 311.111,136.896 311.211,136.896 311.486 C 136.896 311.799,137.021 311.861,137.647 311.861 C 138.272 311.861,138.397 311.924,138.397 312.236 C 138.397 312.486,138.522 312.611,138.772 312.611 C 139.022 312.611,139.147 312.736,139.147 312.986 C 139.147 313.299,139.272 313.361,139.897 313.361 L 140.647 313.361 140.647 312.611 C 140.647 311.936,140.694 311.861,141.116 311.861 C 141.460 311.861,141.585 311.761,141.585 311.486 C 141.585 311.236,141.710 311.111,141.960 311.111 C 142.279 311.111,142.335 310.986,142.335 310.267 C 142.335 309.548,142.390 309.423,142.710 309.423 C 143.022 309.423,143.085 309.298,143.085 308.673 C 143.085 308.048,143.147 307.923,143.460 307.923 C 143.772 307.923,143.835 307.798,143.835 307.173 C 143.835 306.548,143.897 306.423,144.210 306.423 C 144.530 306.423,144.585 306.298,144.585 305.579 C 144.585 304.860,144.641 304.735,144.960 304.735 C 145.294 304.735,145.335 304.610,145.335 303.610 C 145.335 302.535,145.356 302.485,145.804 302.485 C 146.256 302.485,146.273 302.441,146.273 301.266 C 146.273 300.172,146.311 300.047,146.648 300.047 C 146.992 300.047,147.023 299.922,147.023 298.547 C 147.023 297.171,147.054 297.046,147.398 297.046 C 147.765 297.046,147.773 296.921,147.773 291.514 C 147.773 286.107,147.765 285.982,147.398 285.982 C 147.048 285.982,147.023 285.857,147.023 284.107 C 147.023 282.357,146.998 282.232,146.648 282.232 C 146.302 282.232,146.273 282.107,146.273 280.638 C 146.273 279.062,146.267 279.044,145.804 279.044 C 145.382 279.044,145.335 278.969,145.335 278.293 C 145.335 277.668,145.273 277.543,144.960 277.543 C 144.624 277.543,144.585 277.418,144.585 276.324 C 144.585 275.231,144.547 275.105,144.210 275.105 C 143.897 275.105,143.835 274.980,143.835 274.355 C 143.835 273.730,143.772 273.605,143.460 273.605 C 143.140 273.605,143.085 273.480,143.085 272.761 C 143.085 272.043,143.029 271.917,142.710 271.917 C 142.460 271.917,142.335 271.792,142.335 271.542 C 142.335 271.292,142.210 271.167,141.960 271.167 C 141.647 271.167,141.585 271.042,141.585 270.417 C 141.585 269.742,141.538 269.667,141.116 269.667 C 140.772 269.667,140.647 269.567,140.647 269.292 C 140.647 269.042,140.522 268.917,140.272 268.917 C 140.022 268.917,139.897 268.792,139.897 268.542 C 139.897 268.292,139.772 268.167,139.522 268.167 C 139.247 268.167,139.147 268.042,139.147 267.698 C 139.147 267.354,139.047 267.229,138.772 267.229 C 138.522 267.229,138.397 267.104,138.397 266.854 C 138.397 266.604,138.272 266.479,138.022 266.479 C 137.709 266.479,137.647 266.354,137.647 265.729 C 137.647 265.104,137.584 264.979,137.271 264.979 C 137.021 264.979,136.896 264.854,136.896 264.604 C 136.896 264.329,136.771 264.229,136.428 264.229 C 136.084 264.229,135.959 264.129,135.959 263.854 C 135.959 263.604,135.834 263.479,135.584 263.479 C 135.309 263.479,135.209 263.354,135.209 263.010 C 135.209 262.588,135.134 262.541,134.459 262.541 C 133.833 262.541,133.708 262.479,133.708 262.166 C 133.708 261.916,133.583 261.791,133.333 261.791 C 133.083 261.791,132.958 261.666,132.958 261.416 C 132.958 261.096,132.833 261.041,132.114 261.041 C 131.396 261.041,131.271 260.985,131.271 260.666 C 131.271 260.416,131.145 260.291,130.895 260.291 C 130.645 260.291,130.520 260.166,130.520 259.916 C 130.520 259.603,130.395 259.541,129.770 259.541 C 129.145 259.541,129.020 259.478,129.020 259.165 C 129.020 258.853,128.895 258.790,128.270 258.790 C 127.595 258.790,127.520 258.744,127.520 258.322 C 127.520 257.891,127.451 257.853,126.676 257.853 C 125.957 257.853,125.832 257.797,125.832 257.478 C 125.832 257.165,125.707 257.103,125.082 257.103 C 124.457 257.103,124.332 257.040,124.332 256.728 C 124.332 256.391,124.207 256.353,123.113 256.353 C 122.019 256.353,121.894 256.314,121.894 255.977 C 121.894 255.634,121.769 255.602,120.394 255.602 C 119.019 255.602,118.894 255.571,118.894 255.227 C 118.894 254.865,118.769 254.852,115.331 254.852 C 111.892 254.852,111.767 254.839,111.767 254.477 C 111.767 254.165,111.642 254.102,111.017 254.102 C 110.392 254.102,110.267 254.165,110.267 254.477 M284.482 255.227 C 284.482 255.573,284.357 255.602,282.888 255.602 C 281.419 255.602,281.294 255.632,281.294 255.977 C 281.294 256.311,281.169 256.353,280.169 256.353 C 279.169 256.353,279.044 256.394,279.044 256.728 C 279.044 257.040,278.919 257.103,278.293 257.103 C 277.668 257.103,277.543 257.165,277.543 257.478 C 277.543 257.797,277.418 257.853,276.699 257.853 C 275.924 257.853,275.856 257.891,275.856 258.322 C 275.856 258.744,275.781 258.790,275.105 258.790 C 274.480 258.790,274.355 258.853,274.355 259.165 C 274.355 259.478,274.230 259.541,273.605 259.541 C 272.980 259.541,272.855 259.603,272.855 259.916 C 272.855 260.235,272.730 260.291,272.011 260.291 C 271.292 260.291,271.167 260.346,271.167 260.666 C 271.167 260.916,271.042 261.041,270.792 261.041 C 270.542 261.041,270.417 261.166,270.417 261.416 C 270.417 261.666,270.292 261.791,270.042 261.791 C 269.792 261.791,269.667 261.916,269.667 262.166 C 269.667 262.479,269.542 262.541,268.917 262.541 C 268.242 262.541,268.167 262.588,268.167 263.010 C 268.167 263.385,268.073 263.479,267.698 263.479 C 267.354 263.479,267.229 263.579,267.229 263.854 C 267.229 264.104,267.104 264.229,266.854 264.229 C 266.604 264.229,266.479 264.354,266.479 264.604 C 266.479 264.854,266.354 264.979,266.104 264.979 C 265.854 264.979,265.729 265.104,265.729 265.354 C 265.729 265.604,265.604 265.729,265.354 265.729 C 265.104 265.729,264.979 265.854,264.979 266.104 C 264.979 266.354,264.854 266.479,264.604 266.479 C 264.354 266.479,264.229 266.604,264.229 266.854 C 264.229 267.104,264.104 267.229,263.854 267.229 C 263.534 267.229,263.479 267.354,263.479 268.073 C 263.479 268.848,263.440 268.917,263.010 268.917 C 262.666 268.917,262.541 269.017,262.541 269.292 C 262.541 269.542,262.416 269.667,262.166 269.667 C 261.916 269.667,261.791 269.792,261.791 270.042 C 261.791 270.292,261.666 270.417,261.416 270.417 C 261.103 270.417,261.041 270.542,261.041 271.167 C 261.041 271.792,260.978 271.917,260.666 271.917 C 260.346 271.917,260.291 272.043,260.291 272.761 C 260.291 273.480,260.235 273.605,259.916 273.605 C 259.603 273.605,259.541 273.730,259.541 274.355 C 259.541 274.980,259.478 275.105,259.165 275.105 C 258.853 275.105,258.790 275.231,258.790 275.856 C 258.790 276.531,258.744 276.606,258.322 276.606 C 257.891 276.606,257.853 276.674,257.853 277.450 C 257.853 278.168,257.797 278.293,257.478 278.293 C 257.144 278.293,257.103 278.419,257.103 279.419 C 257.103 280.419,257.061 280.544,256.728 280.544 C 256.382 280.544,256.353 280.669,256.353 282.138 C 256.353 283.607,256.323 283.732,255.977 283.732 C 255.609 283.732,255.602 283.857,255.602 291.139 C 255.602 298.422,255.609 298.547,255.977 298.547 C 256.323 298.547,256.353 298.672,256.353 300.141 C 256.353 301.610,256.382 301.735,256.728 301.735 C 257.061 301.735,257.103 301.860,257.103 302.860 C 257.103 303.860,257.144 303.985,257.478 303.985 C 257.797 303.985,257.853 304.110,257.853 304.829 C 257.853 305.604,257.891 305.673,258.322 305.673 C 258.744 305.673,258.790 305.748,258.790 306.423 C 258.790 307.048,258.853 307.173,259.165 307.173 C 259.478 307.173,259.541 307.298,259.541 307.923 C 259.541 308.548,259.603 308.673,259.916 308.673 C 260.235 308.673,260.291 308.798,260.291 309.517 C 260.291 310.236,260.346 310.361,260.666 310.361 C 260.978 310.361,261.041 310.486,261.041 311.111 C 261.041 311.736,261.103 311.861,261.416 311.861 C 261.666 311.861,261.791 311.986,261.791 312.236 C 261.791 312.486,261.916 312.611,262.166 312.611 C 262.416 312.611,262.541 312.736,262.541 312.986 C 262.541 313.306,262.666 313.361,263.385 313.361 C 264.104 313.361,264.229 313.306,264.229 312.986 C 264.229 312.736,264.354 312.611,264.604 312.611 C 264.854 312.611,264.979 312.486,264.979 312.236 C 264.979 311.924,265.104 311.861,265.729 311.861 C 266.354 311.861,266.479 311.799,266.479 311.486 C 266.479 311.236,266.604 311.111,266.854 311.111 C 267.104 311.111,267.229 310.986,267.229 310.736 C 267.229 310.417,267.354 310.361,268.073 310.361 C 268.848 310.361,268.917 310.323,268.917 309.892 C 268.917 309.548,269.017 309.423,269.292 309.423 C 269.542 309.423,269.667 309.298,269.667 309.048 C 269.667 308.736,269.792 308.673,270.417 308.673 C 271.042 308.673,271.167 308.611,271.167 308.298 C 271.167 308.048,271.292 307.923,271.542 307.923 C 271.792 307.923,271.917 307.798,271.917 307.548 C 271.917 307.229,272.043 307.173,272.761 307.173 C 273.480 307.173,273.605 307.117,273.605 306.798 C 273.605 306.548,273.730 306.423,273.980 306.423 C 274.230 306.423,274.355 306.298,274.355 306.048 C 274.355 305.798,274.480 305.673,274.730 305.673 C 275.005 305.673,275.105 305.548,275.105 305.204 C 275.105 304.782,275.180 304.735,275.856 304.735 C 276.481 304.735,276.606 304.673,276.606 304.360 C 276.606 304.085,276.731 303.985,277.075 303.985 C 277.418 303.985,277.543 303.885,277.543 303.610 C 277.543 303.297,277.668 303.235,278.293 303.235 C 278.919 303.235,279.044 303.172,279.044 302.860 C 279.044 302.610,279.169 302.485,279.419 302.485 C 279.669 302.485,279.794 302.360,279.794 302.110 C 279.794 301.860,279.919 301.735,280.169 301.735 C 280.419 301.735,280.544 301.610,280.544 301.360 C 280.544 301.110,280.669 300.985,280.919 300.985 C 281.194 300.985,281.294 300.860,281.294 300.516 C 281.294 300.085,281.363 300.047,282.138 300.047 C 282.857 300.047,282.982 299.991,282.982 299.672 C 282.982 299.422,283.107 299.297,283.357 299.297 C 283.607 299.297,283.732 299.172,283.732 298.922 C 283.732 298.672,283.857 298.547,284.107 298.547 C 284.357 298.547,284.482 298.422,284.482 298.172 C 284.482 297.922,284.607 297.797,284.857 297.797 C 285.107 297.797,285.232 297.672,285.232 297.421 C 285.232 297.171,285.357 297.046,285.607 297.046 C 285.857 297.046,285.982 296.921,285.982 296.671 C 285.982 296.396,286.107 296.296,286.451 296.296 C 286.826 296.296,286.920 296.203,286.920 295.827 C 286.920 295.484,287.020 295.359,287.295 295.359 C 287.545 295.359,287.670 295.234,287.670 294.984 C 287.670 294.734,287.795 294.609,288.045 294.609 C 288.295 294.609,288.420 294.484,288.420 294.233 C 288.420 293.983,288.545 293.858,288.795 293.858 C 289.045 293.858,289.170 293.733,289.170 293.483 C 289.170 293.233,289.295 293.108,289.545 293.108 C 289.795 293.108,289.920 292.983,289.920 292.733 C 289.920 292.483,290.045 292.358,290.295 292.358 C 290.545 292.358,290.670 292.233,290.670 291.983 C 290.670 291.708,290.795 291.608,291.139 291.608 C 291.514 291.608,291.608 291.514,291.608 291.139 C 291.608 290.795,291.708 290.670,291.983 290.670 C 292.233 290.670,292.358 290.545,292.358 290.295 C 292.358 290.045,292.483 289.920,292.733 289.920 C 292.983 289.920,293.108 289.795,293.108 289.545 C 293.108 289.295,293.233 289.170,293.483 289.170 C 293.733 289.170,293.858 289.045,293.858 288.795 C 293.858 288.545,293.983 288.420,294.233 288.420 C 294.484 288.420,294.609 288.295,294.609 288.045 C 294.609 287.795,294.734 287.670,294.984 287.670 C 295.234 287.670,295.359 287.545,295.359 287.295 C 295.359 287.020,295.484 286.920,295.827 286.920 C 296.203 286.920,296.296 286.826,296.296 286.451 C 296.296 286.107,296.396 285.982,296.671 285.982 C 296.921 285.982,297.046 285.857,297.046 285.607 C 297.046 285.357,297.171 285.232,297.421 285.232 C 297.672 285.232,297.797 285.107,297.797 284.857 C 297.797 284.607,297.922 284.482,298.172 284.482 C 298.422 284.482,298.547 284.357,298.547 284.107 C 298.547 283.857,298.672 283.732,298.922 283.732 C 299.172 283.732,299.297 283.607,299.297 283.357 C 299.297 283.107,299.422 282.982,299.672 282.982 C 299.991 282.982,300.047 282.857,300.047 282.138 C 300.047 281.363,300.085 281.294,300.516 281.294 C 300.860 281.294,300.985 281.194,300.985 280.919 C 300.985 280.669,301.110 280.544,301.360 280.544 C 301.610 280.544,301.735 280.419,301.735 280.169 C 301.735 279.919,301.860 279.794,302.110 279.794 C 302.360 279.794,302.485 279.669,302.485 279.419 C 302.485 279.169,302.610 279.044,302.860 279.044 C 303.172 279.044,303.235 278.919,303.235 278.293 C 303.235 277.668,303.297 277.543,303.610 277.543 C 303.885 277.543,303.985 277.418,303.985 277.075 C 303.985 276.731,304.085 276.606,304.360 276.606 C 304.610 276.606,304.735 276.481,304.735 276.231 C 304.735 275.956,304.860 275.856,305.204 275.856 C 305.548 275.856,305.673 275.756,305.673 275.481 C 305.673 275.231,305.798 275.105,306.048 275.105 C 306.360 275.105,306.423 274.980,306.423 274.355 C 306.423 273.730,306.485 273.605,306.798 273.605 C 307.048 273.605,307.173 273.480,307.173 273.230 C 307.173 272.980,307.298 272.855,307.548 272.855 C 307.868 272.855,307.923 272.730,307.923 272.011 C 307.923 271.292,307.979 271.167,308.298 271.167 C 308.548 271.167,308.673 271.042,308.673 270.792 C 308.673 270.542,308.798 270.417,309.048 270.417 C 309.298 270.417,309.423 270.292,309.423 270.042 C 309.423 269.767,309.548 269.667,309.892 269.667 C 310.314 269.667,310.361 269.592,310.361 268.917 C 310.361 268.292,310.424 268.167,310.736 268.167 C 311.011 268.167,311.111 268.042,311.111 267.698 C 311.111 267.354,311.211 267.229,311.486 267.229 C 311.799 267.229,311.861 267.104,311.861 266.479 C 311.861 265.854,311.924 265.729,312.236 265.729 C 312.549 265.729,312.611 265.604,312.611 264.979 C 312.611 264.354,312.674 264.229,312.986 264.229 C 313.236 264.229,313.361 264.104,313.361 263.854 C 313.361 263.604,313.486 263.479,313.737 263.479 C 314.056 263.479,314.112 263.354,314.112 262.635 C 314.112 261.916,314.056 261.791,313.737 261.791 C 313.486 261.791,313.361 261.666,313.361 261.416 C 313.361 261.166,313.236 261.041,312.986 261.041 C 312.736 261.041,312.611 260.916,312.611 260.666 C 312.611 260.353,312.486 260.291,311.861 260.291 C 311.236 260.291,311.111 260.228,311.111 259.916 C 311.111 259.596,310.986 259.541,310.267 259.541 C 309.548 259.541,309.423 259.485,309.423 259.165 C 309.423 258.853,309.298 258.790,308.673 258.790 C 307.998 258.790,307.923 258.744,307.923 258.322 C 307.923 257.900,307.848 257.853,307.173 257.853 C 306.548 257.853,306.423 257.790,306.423 257.478 C 306.423 257.158,306.298 257.103,305.579 257.103 C 304.860 257.103,304.735 257.047,304.735 256.728 C 304.735 256.394,304.610 256.353,303.610 256.353 C 302.610 256.353,302.485 256.311,302.485 255.977 C 302.485 255.632,302.360 255.602,300.891 255.602 C 299.422 255.602,299.297 255.573,299.297 255.227 C 299.297 254.859,299.172 254.852,291.889 254.852 C 284.607 254.852,284.482 254.859,284.482 255.227 M200.844 259.165 C 200.844 259.517,200.719 259.541,198.875 259.541 C 197.031 259.541,196.906 259.564,196.906 259.916 C 196.906 260.228,196.781 260.291,196.156 260.291 C 195.531 260.291,195.406 260.353,195.406 260.666 C 195.406 260.916,195.281 261.041,195.030 261.041 C 194.780 261.041,194.655 261.166,194.655 261.416 C 194.655 261.666,194.530 261.791,194.280 261.791 C 194.030 261.791,193.905 261.916,193.905 262.166 C 193.905 262.416,193.780 262.541,193.530 262.541 C 193.255 262.541,193.155 262.666,193.155 263.010 C 193.155 263.385,193.061 263.479,192.686 263.479 C 192.343 263.479,192.218 263.579,192.218 263.854 C 192.218 264.104,192.093 264.229,191.842 264.229 C 191.530 264.229,191.467 264.354,191.467 264.979 C 191.467 265.604,191.405 265.729,191.092 265.729 C 190.756 265.729,190.717 265.854,190.717 266.948 C 190.717 268.042,190.679 268.167,190.342 268.167 C 189.987 268.167,189.967 268.292,189.967 270.511 C 189.967 272.730,189.987 272.855,190.342 272.855 C 190.676 272.855,190.717 272.980,190.717 273.980 C 190.717 274.980,190.759 275.105,191.092 275.105 C 191.405 275.105,191.467 275.231,191.467 275.856 C 191.467 276.481,191.530 276.606,191.842 276.606 C 192.118 276.606,192.218 276.731,192.218 277.075 C 192.218 277.450,192.311 277.543,192.686 277.543 C 193.030 277.543,193.155 277.643,193.155 277.918 C 193.155 278.168,193.280 278.293,193.530 278.293 C 193.780 278.293,193.905 278.419,193.905 278.669 C 193.905 278.919,194.030 279.044,194.280 279.044 C 194.530 279.044,194.655 279.169,194.655 279.419 C 194.655 279.669,194.780 279.794,195.030 279.794 C 195.281 279.794,195.406 279.919,195.406 280.169 C 195.406 280.481,195.531 280.544,196.156 280.544 C 196.781 280.544,196.906 280.606,196.906 280.919 C 196.906 281.283,197.031 281.294,201.219 281.294 C 205.407 281.294,205.532 281.283,205.532 280.919 C 205.532 280.599,205.657 280.544,206.376 280.544 C 207.095 280.544,207.220 280.488,207.220 280.169 C 207.220 279.919,207.345 279.794,207.595 279.794 C 207.845 279.794,207.970 279.669,207.970 279.419 C 207.970 279.106,208.095 279.044,208.720 279.044 C 209.345 279.044,209.470 278.981,209.470 278.669 C 209.470 278.419,209.595 278.293,209.845 278.293 C 210.165 278.293,210.220 278.168,210.220 277.450 C 210.220 276.731,210.276 276.606,210.595 276.606 C 210.845 276.606,210.970 276.481,210.970 276.231 C 210.970 275.956,211.095 275.856,211.439 275.856 C 211.861 275.856,211.908 275.781,211.908 275.105 C 211.908 274.480,211.971 274.355,212.283 274.355 C 212.646 274.355,212.658 274.230,212.658 270.417 C 212.658 266.604,212.646 266.479,212.283 266.479 C 211.971 266.479,211.908 266.354,211.908 265.729 C 211.908 265.054,211.861 264.979,211.439 264.979 C 211.095 264.979,210.970 264.879,210.970 264.604 C 210.970 264.354,210.845 264.229,210.595 264.229 C 210.276 264.229,210.220 264.104,210.220 263.385 C 210.220 262.666,210.165 262.541,209.845 262.541 C 209.595 262.541,209.470 262.416,209.470 262.166 C 209.470 261.916,209.345 261.791,209.095 261.791 C 208.845 261.791,208.720 261.666,208.720 261.416 C 208.720 261.103,208.595 261.041,207.970 261.041 C 207.345 261.041,207.220 260.978,207.220 260.666 C 207.220 260.346,207.095 260.291,206.376 260.291 C 205.657 260.291,205.532 260.235,205.532 259.916 C 205.532 259.564,205.407 259.541,203.563 259.541 C 201.719 259.541,201.594 259.517,201.594 259.165 C 201.594 258.915,201.469 258.790,201.219 258.790 C 200.969 258.790,200.844 258.915,200.844 259.165 M194.655 292.733 C 194.655 293.079,194.530 293.108,193.061 293.108 C 191.592 293.108,191.467 293.138,191.467 293.483 C 191.467 293.817,191.342 293.858,190.342 293.858 C 189.342 293.858,189.217 293.900,189.217 294.233 C 189.217 294.570,189.092 294.609,187.998 294.609 C 186.904 294.609,186.779 294.647,186.779 294.984 C 186.779 295.296,186.654 295.359,186.029 295.359 C 185.354 295.359,185.279 295.406,185.279 295.827 C 185.279 296.249,185.204 296.296,184.529 296.296 C 183.904 296.296,183.779 296.359,183.779 296.671 C 183.779 296.946,183.654 297.046,183.310 297.046 C 182.966 297.046,182.841 297.146,182.841 297.421 C 182.841 297.734,182.716 297.797,182.091 297.797 C 181.466 297.797,181.341 297.859,181.341 298.172 C 181.341 298.484,181.216 298.547,180.591 298.547 C 179.966 298.547,179.841 298.609,179.841 298.922 C 179.841 299.172,179.716 299.297,179.466 299.297 C 179.216 299.297,179.090 299.422,179.090 299.672 C 179.090 299.947,178.965 300.047,178.622 300.047 C 178.247 300.047,178.153 300.141,178.153 300.516 C 178.153 300.860,178.053 300.985,177.778 300.985 C 177.528 300.985,177.403 301.110,177.403 301.360 C 177.403 301.610,177.278 301.735,177.028 301.735 C 176.778 301.735,176.653 301.860,176.653 302.110 C 176.653 302.360,176.528 302.485,176.278 302.485 C 176.028 302.485,175.902 302.610,175.902 302.860 C 175.902 303.110,175.777 303.235,175.527 303.235 C 175.277 303.235,175.152 303.360,175.152 303.610 C 175.152 303.860,175.027 303.985,174.777 303.985 C 174.527 303.985,174.402 304.110,174.402 304.360 C 174.402 304.635,174.277 304.735,173.933 304.735 C 173.558 304.735,173.465 304.829,173.465 305.204 C 173.465 305.548,173.365 305.673,173.090 305.673 C 172.840 305.673,172.714 305.798,172.714 306.048 C 172.714 306.298,172.589 306.423,172.339 306.423 C 172.089 306.423,171.964 306.548,171.964 306.798 C 171.964 307.048,171.839 307.173,171.589 307.173 C 171.277 307.173,171.214 307.298,171.214 307.923 C 171.214 308.548,171.152 308.673,170.839 308.673 C 170.589 308.673,170.464 308.798,170.464 309.048 C 170.464 309.298,170.339 309.423,170.089 309.423 C 169.770 309.423,169.714 309.548,169.714 310.267 C 169.714 311.042,169.676 311.111,169.245 311.111 C 168.823 311.111,168.776 311.186,168.776 311.861 C 168.776 312.486,168.714 312.611,168.401 312.611 C 168.089 312.611,168.026 312.736,168.026 313.361 C 168.026 313.987,167.964 314.112,167.651 314.112 C 167.315 314.112,167.276 314.237,167.276 315.331 C 167.276 316.424,167.238 316.549,166.901 316.549 C 166.568 316.549,166.526 316.674,166.526 317.675 C 166.526 318.675,166.484 318.800,166.151 318.800 C 165.805 318.800,165.776 318.925,165.776 320.394 C 165.776 321.863,165.746 321.988,165.401 321.988 C 165.064 321.988,165.026 322.113,165.026 323.207 L 165.026 324.426 166.151 324.426 C 167.151 324.426,167.276 324.467,167.276 324.801 C 167.276 325.146,167.401 325.176,168.870 325.176 C 170.339 325.176,170.464 325.205,170.464 325.551 C 170.464 325.902,170.589 325.926,172.433 325.926 C 174.277 325.926,174.402 325.950,174.402 326.301 C 174.402 326.659,174.527 326.676,177.121 326.676 C 179.716 326.676,179.841 326.693,179.841 327.051 C 179.841 327.409,179.966 327.426,182.560 327.426 C 185.154 327.426,185.279 327.443,185.279 327.801 C 185.279 328.169,185.404 328.176,191.561 328.176 L 197.843 328.176 197.843 328.645 L 197.843 329.114 201.688 329.114 L 205.532 329.114 205.532 328.645 L 205.532 328.176 211.814 328.176 C 217.972 328.176,218.097 328.169,218.097 327.801 C 218.097 327.443,218.222 327.426,220.816 327.426 C 223.410 327.426,223.535 327.409,223.535 327.051 C 223.535 326.696,223.660 326.676,225.879 326.676 C 228.098 326.676,228.223 326.656,228.223 326.301 C 228.223 325.950,228.348 325.926,230.192 325.926 C 232.036 325.926,232.161 325.902,232.161 325.551 C 232.161 325.200,232.286 325.176,234.130 325.176 C 235.974 325.176,236.099 325.152,236.099 324.801 C 236.099 324.488,236.224 324.426,236.850 324.426 L 237.600 324.426 237.600 322.457 C 237.600 320.613,237.576 320.488,237.225 320.488 C 236.888 320.488,236.850 320.363,236.850 319.269 C 236.850 318.175,236.811 318.050,236.474 318.050 C 236.141 318.050,236.099 317.925,236.099 316.925 C 236.099 315.924,236.058 315.799,235.724 315.799 C 235.388 315.799,235.349 315.674,235.349 314.580 C 235.349 313.405,235.332 313.361,234.880 313.361 C 234.459 313.361,234.412 313.286,234.412 312.611 C 234.412 311.986,234.349 311.861,234.037 311.861 C 233.724 311.861,233.662 311.736,233.662 311.111 C 233.662 310.486,233.599 310.361,233.286 310.361 C 233.011 310.361,232.911 310.236,232.911 309.892 C 232.911 309.548,232.811 309.423,232.536 309.423 C 232.224 309.423,232.161 309.298,232.161 308.673 C 232.161 308.048,232.099 307.923,231.786 307.923 C 231.536 307.923,231.411 307.798,231.411 307.548 C 231.411 307.298,231.286 307.173,231.036 307.173 C 230.786 307.173,230.661 307.048,230.661 306.798 C 230.661 306.523,230.536 306.423,230.192 306.423 C 229.762 306.423,229.723 306.354,229.723 305.579 C 229.723 304.860,229.668 304.735,229.348 304.735 C 229.098 304.735,228.973 304.610,228.973 304.360 C 228.973 304.110,228.848 303.985,228.598 303.985 C 228.348 303.985,228.223 303.860,228.223 303.610 C 228.223 303.360,228.098 303.235,227.848 303.235 C 227.598 303.235,227.473 303.110,227.473 302.860 C 227.473 302.610,227.348 302.485,227.098 302.485 C 226.848 302.485,226.723 302.360,226.723 302.110 C 226.723 301.860,226.598 301.735,226.348 301.735 C 226.098 301.735,225.973 301.610,225.973 301.360 C 225.973 301.085,225.848 300.985,225.504 300.985 C 225.129 300.985,225.035 300.891,225.035 300.516 C 225.035 300.094,224.960 300.047,224.285 300.047 C 223.660 300.047,223.535 299.984,223.535 299.672 C 223.535 299.422,223.410 299.297,223.160 299.297 C 222.910 299.297,222.785 299.172,222.785 298.922 C 222.785 298.672,222.660 298.547,222.410 298.547 C 222.160 298.547,222.035 298.422,222.035 298.172 C 222.035 297.852,221.910 297.797,221.191 297.797 C 220.472 297.797,220.347 297.741,220.347 297.421 C 220.347 297.109,220.222 297.046,219.597 297.046 C 218.972 297.046,218.847 296.984,218.847 296.671 C 218.847 296.359,218.722 296.296,218.097 296.296 C 217.421 296.296,217.346 296.249,217.346 295.827 C 217.346 295.397,217.278 295.359,216.503 295.359 C 215.784 295.359,215.659 295.303,215.659 294.984 C 215.659 294.650,215.534 294.609,214.534 294.609 C 213.533 294.609,213.408 294.567,213.408 294.233 C 213.408 293.897,213.283 293.858,212.189 293.858 C 211.095 293.858,210.970 293.820,210.970 293.483 C 210.970 293.140,210.845 293.108,209.470 293.108 C 208.095 293.108,207.970 293.077,207.970 292.733 C 207.970 292.365,207.845 292.358,201.313 292.358 C 194.780 292.358,194.655 292.365,194.655 292.733 " stroke="none" fill="#ec0534" fill-rule="evenodd"></path></g></svg>