<?xml version="1.0" encoding="UTF-8" standalone="no"?>
<svg
   version="1.1"
   id="Layer_1"
   x="0px"
   y="0px"
   width="309.47021"
   viewBox="0 0 309.47021 309.68958"
   enable-background="new 0 0 368 368"
   xml:space="preserve"
   sodipodi:docname="Screenshot 2025-01-25 213634.svg"
   height="309.68958"
   inkscape:version="1.1 (c68e22c387, 2021-05-23)"
   xmlns:inkscape="http://www.inkscape.org/namespaces/inkscape"
   xmlns:sodipodi="http://sodipodi.sourceforge.net/DTD/sodipodi-0.dtd"
   xmlns="http://www.w3.org/2000/svg"
   xmlns:svg="http://www.w3.org/2000/svg"><defs
   id="defs7" /><sodipodi:namedview
   id="namedview5"
   pagecolor="#ffffff"
   bordercolor="#666666"
   borderopacity="1.0"
   inkscape:pageshadow="2"
   inkscape:pageopacity="0.0"
   inkscape:pagecheckerboard="0"
   showgrid="false"
   inkscape:zoom="2.0923913"
   inkscape:cx="150.54545"
   inkscape:cy="167.27273"
   inkscape:window-width="1920"
   inkscape:window-height="974"
   inkscape:window-x="-11"
   inkscape:window-y="-11"
   inkscape:window-maximized="1"
   inkscape:current-layer="Layer_1" />
<path
   fill="#000000"
   opacity="1"
   stroke="none"
   d="m 167.58081,308.599 c -13.94982,1.98199 -27.29831,1.23846 -40.55214,-2.03488 -3.97869,-0.98267 -6.07589,-2.82621 -6.93404,-7.16794 -1.83614,-9.28983 -4.44118,-18.42786 -6.73819,-27.62634 -1.62318,-6.50025 -10.37202,-10.27683 -16.109501,-6.93275 -8.06012,4.69785 -16.18562,9.29224 -24.10998,14.20994 -2.98739,1.85388 -5.33647,1.71429 -8.262919,10e-4 -16.030029,-9.38401 -28.861648,-21.86783 -37.956718,-38.15195 -1.500889,-2.68724 -1.360233,-4.80678 0.243649,-7.36853 5.480182,-8.75304 10.857471,-17.57375 16.096782,-26.47299 2.808632,-4.77062 -0.703956,-13.42397 -6.000877,-14.88541 -9.301785,-2.56641 -18.632595,-5.04192 -28.0108722,-7.30882 -3.166603,-0.76545 -4.856907,-2.39203 -5.648712,-5.46762 -4.56739805,-17.74109 -4.941435,-35.45557 -0.223068,-53.25445 0.946411,-3.57011 2.932708,-5.13279 6.356994,-5.92842 9.3976212,-2.18354 18.7450832,-4.58628 28.0954972,-6.96858 6.762215,-1.72287 10.258355,-10.42385 6.678414,-16.493754 -4.654999,-7.89269 -9.268257,-15.811034 -14.024185,-23.642593 -1.625916,-2.677391 -1.92574,-4.991478 -0.231987,-7.854141 9.352119,-15.806381 21.520896,-28.707607 37.632862,-37.804821 3.15539,-1.781612 5.51247,-1.896248 8.62902,0.108669 8.12222,5.225148 16.47672,10.0905 24.760641,15.062607 6.21359,3.729477 14.84288,0.128853 16.69218,-6.959392 2.30963,-8.8527 4.6162,-17.706669 6.83364,-26.5826819 0.69813,-2.794538 1.89801,-4.622522 4.99954,-5.42482 17.75249,-4.592175 35.46034,-5.003936 53.28181,-0.366251 3.76877,0.980749 5.413,3.015141 6.2284,6.713251 2.04088,9.2561549 4.46266,18.4284919 6.74328,27.6315629 1.70772,6.891152 10.2448,10.589444 16.27607,7.061325 8.05296,-4.710758 16.16767,-9.320678 24.12349,-14.190238 2.78207,-1.702847 5.05325,-1.717671 7.84085,-0.08314 15.70422,9.208374 28.35885,21.394051 37.57711,37.190827 2.07959,3.563667 1.82212,6.223007 -0.31103,9.541099 -4.95334,7.704939 -9.6771,15.563469 -14.30002,23.473061 -4.3418,7.42873 -0.88806,15.48398 7.35104,17.62865 8.69226,2.26259 17.36582,4.60054 26.08509,6.75366 2.72567,0.67307 4.34814,2.04054 5.05682,4.78825 4.61649,17.89873 5.18118,35.78287 0.31043,53.75371 -0.95588,3.5267 -2.89878,5.16901 -6.37177,5.9545 -9.57098,2.16464 -19.08298,4.5916 -28.61017,6.94768 -5.73318,1.41781 -9.52762,10.29521 -6.56109,15.44285 4.7416,8.22783 9.47143,16.46508 14.39331,24.58493 1.65249,2.72617 1.83175,4.94452 0.18481,7.80787 -9.35437,16.26287 -21.87668,29.24624 -38.3815,38.36477 -2.75812,1.52378 -4.72797,1.32001 -7.28635,-0.28488 -8.6076,-5.39957 -17.36172,-10.56555 -26.06112,-15.81873 -4.75415,-2.87078 -13.92263,0.67133 -15.38906,6.07587 -2.39497,8.82666 -4.92915,17.633 -6.82028,26.57153 -0.94087,4.44712 -3.02553,6.70032 -7.35194,7.38907 -3.28227,0.52253 -6.5212,1.31745 -10.22421,2.01731 M 158.78718,99.717458 c -36.9016,-0.85124 -63.053221,26.705082 -58.44453,63.273822 3.83975,30.46743 33.56929,52.11281 64.23059,46.02784 33.94912,-6.73744 53.83511,-40.99404 41.84665,-72.97244 -8.00364,-21.34913 -24.14821,-33.21229 -47.63271,-36.329222 z"
   id="path2" />
</svg>
